<svg xmlns="http://www.w3.org/2000/svg" viewBox="0 0 800 450" width="800" height="450">
  <defs>
    <linearGradient id="bg3" x1="0" y1="0" x2="1" y2="1">
      <stop offset="0%" stop-color="#1a1508"/>
      <stop offset="100%" stop-color="#100e05"/>
    </linearGradient>
  </defs>
  <rect width="800" height="450" fill="url(#bg3)"/>
  <!-- Icon grid -->
  <!-- Row 1 -->
  <rect x="160" y="60" width="100" height="100" rx="12" fill="#1f1a0d" stroke="#f59e0b40" stroke-width="1"/>
  <polygon points="210,82 220,106 196,94 224,94 200,106" fill="#f59e0b" opacity="0.8"/>
  <rect x="270" y="60" width="100" height="100" rx="12" fill="#1f1a0d" stroke="#f59e0b40" stroke-width="1"/>
  <circle cx="320" cy="100" r="20" fill="none" stroke="#f59e0b" stroke-width="3" opacity="0.7"/>
  <rect x="380" y="60" width="100" height="100" rx="12" fill="#1f1a0d" stroke="#f59e0b40" stroke-width="1"/>
  <rect x="410" y="85" width="40" height="30" rx="4" fill="#f59e0b" opacity="0.7"/>
  <rect x="490" y="60" width="100" height="100" rx="12" fill="#1f1a0d" stroke="#f59e0b40" stroke-width="1"/>
  <path d="M540,82 L560,110 L520,110 Z" fill="#f59e0b" opacity="0.6"/>
  <!-- Row 2 -->
  <rect x="160" y="180" width="100" height="100" rx="12" fill="#1f1a0d" stroke="#f59e0b40" stroke-width="1"/>
  <circle cx="210" cy="220" r="6" fill="#f59e0b" opacity="0.8"/>
  <circle cx="210" cy="240" r="6" fill="#f59e0b" opacity="0.5"/>
  <rect x="270" y="180" width="100" height="100" rx="12" fill="#1f1a0d" stroke="#f59e0b40" stroke-width="1"/>
  <path d="M305,230 L320,200 L335,230 Z" fill="none" stroke="#f59e0b" stroke-width="2.5" opacity="0.7"/>
  <rect x="380" y="180" width="100" height="100" rx="12" fill="#1f1a0d" stroke="#f59e0b40" stroke-width="1"/>
  <line x1="410" y1="220" x2="450" y2="220" stroke="#f59e0b" stroke-width="3" opacity="0.6"/>
  <line x1="430" y1="200" x2="430" y2="240" stroke="#f59e0b" stroke-width="3" opacity="0.6"/>
  <rect x="490" y="180" width="100" height="100" rx="12" fill="#1f1a0d" stroke="#f59e0b40" stroke-width="1"/>
  <rect x="520" y="205" width="20" height="30" rx="2" fill="#f59e0b" opacity="0.7"/>
  <!-- Row 3 -->
  <rect x="160" y="300" width="100" height="100" rx="12" fill="#1f1a0d" stroke="#f59e0b40" stroke-width="1"/>
  <circle cx="210" cy="340" r="18" fill="none" stroke="#f59e0b" stroke-width="2" opacity="0.5"/>
  <line x1="223" y1="353" x2="235" y2="365" stroke="#f59e0b" stroke-width="2" opacity="0.5"/>
  <rect x="270" y="300" width="100" height="100" rx="12" fill="#1f1a0d" stroke="#f59e0b40" stroke-width="1"/>
  <path d="M320,320 L320,360 M300,340 L340,340" stroke="#f59e0b" stroke-width="3" opacity="0.5" stroke-linecap="round"/>
  <rect x="380" y="300" width="100" height="100" rx="12" fill="#1f1a0d" stroke="#f59e0b40" stroke-width="1"/>
  <rect x="408" y="328" width="44" height="24" rx="12" fill="none" stroke="#f59e0b" stroke-width="2" opacity="0.6"/>
  <circle cx="422" cy="340" r="8" fill="#f59e0b" opacity="0.4"/>
  <rect x="490" y="300" width="100" height="100" rx="12" fill="#1f1a0d" stroke="#f59e0b40" stroke-width="1"/>
  <path d="M525,330 L540,315 L555,330 L555,360 L525,360 Z" fill="none" stroke="#f59e0b" stroke-width="2" opacity="0.6"/>
</svg>
