<svg xmlns="http://www.w3.org/2000/svg" viewBox="0 0 800 450" width="800" height="450">
  <defs>
    <linearGradient id="bg2" x1="0" y1="0" x2="1" y2="1">
      <stop offset="0%" stop-color="#0a1a20"/>
      <stop offset="100%" stop-color="#061015"/>
    </linearGradient>
  </defs>
  <rect width="800" height="450" fill="url(#bg2)"/>
  <!-- Checklist -->
  <rect x="200" y="50" width="300" height="350" rx="16" fill="#0f2530" stroke="#06b6d480" stroke-width="1"/>
  <rect x="220" y="70" width="120" height="10" rx="5" fill="#06b6d460"/>
  <!-- Check items -->
  <rect x="220" y="100" width="20" height="20" rx="4" fill="#06b6d4" opacity="0.8"/>
  <line x1="225" y1="112" x2="231" y2="117" stroke="#0a1a20" stroke-width="2.5" stroke-linecap="round"/>
  <line x1="231" y1="117" x2="237" y2="105" stroke="#0a1a20" stroke-width="2.5" stroke-linecap="round"/>
  <rect x="252" y="104" width="200" height="8" rx="4" fill="#06b6d440"/>
  <rect x="220" y="140" width="20" height="20" rx="4" fill="#06b6d4" opacity="0.8"/>
  <line x1="225" y1="152" x2="231" y2="157" stroke="#0a1a20" stroke-width="2.5" stroke-linecap="round"/>
  <line x1="231" y1="157" x2="237" y2="145" stroke="#0a1a20" stroke-width="2.5" stroke-linecap="round"/>
  <rect x="252" y="144" width="180" height="8" rx="4" fill="#06b6d440"/>
  <rect x="220" y="180" width="20" height="20" rx="4" fill="#06b6d4" opacity="0.8"/>
  <line x1="225" y1="192" x2="231" y2="197" stroke="#0a1a20" stroke-width="2.5" stroke-linecap="round"/>
  <line x1="231" y1="197" x2="237" y2="185" stroke="#0a1a20" stroke-width="2.5" stroke-linecap="round"/>
  <rect x="252" y="184" width="220" height="8" rx="4" fill="#06b6d440"/>
  <rect x="220" y="220" width="20" height="20" rx="4" rx="4" fill="none" stroke="#06b6d460" stroke-width="2"/>
  <rect x="252" y="224" width="160" height="8" rx="4" fill="#06b6d430"/>
  <rect x="220" y="260" width="20" height="20" rx="4" fill="none" stroke="#06b6d460" stroke-width="2"/>
  <rect x="252" y="264" width="190" height="8" rx="4" fill="#06b6d430"/>
  <rect x="220" y="300" width="20" height="20" rx="4" fill="none" stroke="#06b6d460" stroke-width="2"/>
  <rect x="252" y="304" width="140" height="8" rx="4" fill="#06b6d430"/>
  <!-- Magnifying glass -->
  <circle cx="580" cy="200" r="80" fill="none" stroke="#06b6d4" stroke-width="4" opacity="0.6"/>
  <line x1="637" y1="257" x2="690" y2="310" stroke="#06b6d4" stroke-width="6" stroke-linecap="round" opacity="0.6"/>
  <circle cx="580" cy="200" r="50" fill="#06b6d410"/>
  <!-- Sparkle inside magnifier -->
  <circle cx="565" cy="185" r="4" fill="#06b6d4" opacity="0.8"/>
  <circle cx="595" cy="210" r="3" fill="#06b6d4" opacity="0.5"/>
</svg>
