<svg xmlns="http://www.w3.org/2000/svg" viewBox="0 0 800 450" width="800" height="450">
  <defs>
    <linearGradient id="bg" x1="0" y1="0" x2="1" y2="1">
      <stop offset="0%" stop-color="#1a1025"/>
      <stop offset="100%" stop-color="#0d0a14"/>
    </linearGradient>
    <linearGradient id="accent" x1="0" y1="0" x2="1" y2="1">
      <stop offset="0%" stop-color="#8b5cf6"/>
      <stop offset="100%" stop-color="#6d28d9"/>
    </linearGradient>
  </defs>
  <rect width="800" height="450" fill="url(#bg)"/>
  <!-- Dashboard mockup -->
  <rect x="80" y="60" width="640" height="330" rx="12" fill="#1e1530" stroke="#8b5cf680" stroke-width="1"/>
  <!-- Top bar -->
  <rect x="80" y="60" width="640" height="40" rx="12" fill="#251d3a"/>
  <circle cx="108" cy="80" r="6" fill="#ef4444" opacity="0.7"/>
  <circle cx="128" cy="80" r="6" fill="#eab308" opacity="0.7"/>
  <circle cx="148" cy="80" r="6" fill="#22c55e" opacity="0.7"/>
  <!-- Sidebar -->
  <rect x="80" y="100" width="120" height="290" fill="#1a1230"/>
  <rect x="96" y="120" width="88" height="8" rx="4" fill="#8b5cf640"/>
  <rect x="96" y="144" width="72" height="8" rx="4" fill="#8b5cf630"/>
  <rect x="96" y="168" width="80" height="8" rx="4" fill="#8b5cf630"/>
  <rect x="96" y="192" width="64" height="8" rx="4" fill="#8b5cf620"/>
  <!-- Cards -->
  <rect x="220" y="116" width="150" height="80" rx="8" fill="#251d3a"/>
  <rect x="236" y="132" width="60" height="8" rx="4" fill="#8b5cf650"/>
  <rect x="236" y="156" width="100" height="20" rx="4" fill="#8b5cf630"/>
  <rect x="390" y="116" width="150" height="80" rx="8" fill="#251d3a"/>
  <rect x="406" y="132" width="50" height="8" rx="4" fill="#a78bfa50"/>
  <rect x="406" y="156" width="100" height="20" rx="4" fill="#a78bfa30"/>
  <rect x="560" y="116" width="150" height="80" rx="8" fill="#251d3a"/>
  <rect x="576" y="132" width="70" height="8" rx="4" fill="#c4b5fd50"/>
  <rect x="576" y="156" width="100" height="20" rx="4" fill="#c4b5fd30"/>
  <!-- Bar chart -->
  <rect x="220" y="216" width="490" height="160" rx="8" fill="#251d3a"/>
  <rect x="260" y="310" width="40" height="50" rx="4" fill="#8b5cf6" opacity="0.8"/>
  <rect x="320" y="280" width="40" height="80" rx="4" fill="#8b5cf6" opacity="0.6"/>
  <rect x="380" y="260" width="40" height="100" rx="4" fill="#8b5cf6" opacity="0.9"/>
  <rect x="440" y="290" width="40" height="70" rx="4" fill="#8b5cf6" opacity="0.5"/>
  <rect x="500" y="250" width="40" height="110" rx="4" fill="#8b5cf6" opacity="0.7"/>
  <rect x="560" y="270" width="40" height="90" rx="4" fill="#8b5cf6" opacity="0.8"/>
  <rect x="620" y="240" width="40" height="120" rx="4" fill="#8b5cf6" opacity="0.6"/>
</svg>
