<svg width="243" height="24" fill="none" xmlns="http://www.w3.org/2000/svg">
    <path d="M167.257 20.034a.755.755 0 0 1-.738-.483.768.768 0 0 1-.052-.308V4.974a.769.769 0 0 1 .222-.568.756.756 0 0 1 .568-.222h3.65a8.521 8.521 0 0 1 3.201.57 7.24 7.24 0 0 1 2.505 1.647 7.534 7.534 0 0 1 1.645 2.508 9.148 9.148 0 0 1 0 6.386 7.5 7.5 0 0 1-1.645 2.519 7.238 7.238 0 0 1-2.505 1.646 8.521 8.521 0 0 1-3.195.58l-3.656-.006Zm.792-1.422h2.858a6.366 6.366 0 0 0 3.289-.842 6 6 0 0 0 2.242-2.313 7.371 7.371 0 0 0 0-6.724 5.959 5.959 0 0 0-2.242-2.305 6.44 6.44 0 0 0-3.289-.823h-2.866l.008 13.007ZM182.456 20.029a.771.771 0 0 1-.745-.483.751.751 0 0 1-.052-.307V4.973a.766.766 0 0 1 .797-.79h9.603a.8.8 0 0 1 .733.463.738.738 0 0 1-.18.848.782.782 0 0 1-.553.223h-8.804v5.602h6.408a.787.787 0 0 1 .573.225.775.775 0 0 1-.573 1.322h-6.408v5.662h8.804a.776.776 0 0 1 .553.225.703.703 0 0 1 .238.527.719.719 0 0 1-.238.549.811.811 0 0 1-.553.21l-9.603-.01ZM200.435 20.137a7.351 7.351 0 0 1-2.4-.376 5.797 5.797 0 0 1-1.918-1.065 4.698 4.698 0 0 1-1.235-1.605.603.603 0 0 1 0-.598.806.806 0 0 1 .518-.376.731.731 0 0 1 .548.06.96.96 0 0 1 .416.429c.219.415.527.778.901 1.062.417.326.891.57 1.397.721.578.175 1.18.261 1.784.255a4.776 4.776 0 0 0 1.917-.356 2.987 2.987 0 0 0 1.307-1.035 2.808 2.808 0 0 0 .477-1.646c.004-.4-.075-.795-.233-1.162a2.869 2.869 0 0 0-.68-.97c-.608-.594-1.56-.974-2.857-1.138-1.58-.183-2.816-.673-3.709-1.47a3.748 3.748 0 0 1-1.34-2.914 3.569 3.569 0 0 1 .661-2.154 4.26 4.26 0 0 1 1.813-1.41 6.652 6.652 0 0 1 2.655-.497 5.471 5.471 0 0 1 3.618 1.29c.43.362.799.79 1.096 1.267a.817.817 0 0 1 .132.631.72.72 0 0 1-.356.467.823.823 0 0 1-.617.04.82.82 0 0 1-.476-.386 4.645 4.645 0 0 0-.762-.884 3.368 3.368 0 0 0-1.096-.658 4.705 4.705 0 0 0-1.561-.274c-1.069 0-1.927.226-2.575.677a2.256 2.256 0 0 0-.973 1.981c-.004.45.123.89.365 1.268a2.88 2.88 0 0 0 1.208.996c.717.321 1.479.53 2.26.62 1.687.245 2.94.762 3.758 1.553a4.104 4.104 0 0 1 1.227 3.094 4.594 4.594 0 0 1-.394 1.95 3.92 3.92 0 0 1-1.115 1.43 5.105 5.105 0 0 1-1.682.884 6.809 6.809 0 0 1-2.079.299ZM209.939 20.04a.827.827 0 0 1-.59-.223.762.762 0 0 1-.233-.568V4.982a.781.781 0 0 1 .143-.444.832.832 0 0 1 .374-.294.863.863 0 0 1 .906.17.767.767 0 0 1 .231.568v14.267a.748.748 0 0 1-.23.568.798.798 0 0 1-.59.222h-.011ZM221.71 20.137a7.601 7.601 0 0 1-3.085-.628 7.872 7.872 0 0 1-2.526-1.754 8.242 8.242 0 0 1-1.701-2.595 8.448 8.448 0 0 1 0-6.288 7.96 7.96 0 0 1 1.689-2.588 8.126 8.126 0 0 1 2.524-1.754 7.575 7.575 0 0 1 3.107-.639 7.977 7.977 0 0 1 2.667.425 7.66 7.66 0 0 1 2.323 1.37.546.546 0 0 1 .162.7c-.05.11-.136.2-.245.255a.357.357 0 0 1-.204.244.673.673 0 0 1-.377.06.78.78 0 0 1-.415-.184 5.426 5.426 0 0 0-1.731-1.022 6.435 6.435 0 0 0-2.18-.335 5.87 5.87 0 0 0-2.477.527 6.606 6.606 0 0 0-2.028 1.439 6.813 6.813 0 0 0-1.376 2.11 6.508 6.508 0 0 0-.498 2.536c-.007.883.162 1.759.498 2.576a6.8 6.8 0 0 0 1.376 2.108 6.486 6.486 0 0 0 2.028 1.43 5.948 5.948 0 0 0 2.477.519 6.07 6.07 0 0 0 2.116-.368 7.132 7.132 0 0 0 1.897-1.052.621.621 0 0 1 .517-.162c.182.025.351.11.479.241a.723.723 0 0 1 .204.53.972.972 0 0 1-.042.293.71.71 0 0 1-.181.274 6.038 6.038 0 0 1-2.323 1.348 9.023 9.023 0 0 1-2.675.384Zm5.212-2.31-1.546-.327v-4.07H222.2a.829.829 0 0 1-.573-.203.649.649 0 0 1-.167-.229.65.65 0 0 1-.056-.278.634.634 0 0 1 .223-.496.847.847 0 0 1 .573-.195h3.943a.792.792 0 0 1 .57.214.735.735 0 0 1 .223.548l-.014 5.035ZM231.04 20.04a.774.774 0 0 1-.572-.223.748.748 0 0 1-.223-.568V4.982a.783.783 0 0 1 .223-.568.779.779 0 0 1 .572-.223.768.768 0 0 1 .612.275l9.766 12.753V4.973a.766.766 0 0 1 .795-.79.792.792 0 0 1 .729.482c.04.098.06.203.058.308v14.268a.76.76 0 0 1-.235.568.792.792 0 0 1-.552.222.914.914 0 0 1-.326-.06.554.554 0 0 1-.276-.203l-9.785-12.75v12.231a.743.743 0 0 1-.234.568.793.793 0 0 1-.552.222ZM9.745 24c-1.908 0-3.597-.354-5.065-1.062a8.303 8.303 0 0 1-3.437-2.925A7.584 7.584 0 0 1 0 15.731V1.844A1.472 1.472 0 0 1 .448.728a1.538 1.538 0 0 1 2.644 1.116V15.73a4.885 4.885 0 0 0 .85 2.833 5.688 5.688 0 0 0 2.353 1.933 8.081 8.081 0 0 0 3.443.697 7.55 7.55 0 0 0 3.322-.697 5.582 5.582 0 0 0 2.264-1.933c.55-.842.836-1.828.82-2.833V1.844A1.474 1.474 0 0 1 16.59.728a1.514 1.514 0 0 1 1.101-.432 1.469 1.469 0 0 1 1.109.432 1.546 1.546 0 0 1 .416 1.116V15.73a7.753 7.753 0 0 1-1.206 4.282 8.188 8.188 0 0 1-3.352 2.93C13.23 23.648 11.592 24 9.745 24ZM27.295 23.523a1.456 1.456 0 0 1-1.09-.446 1.518 1.518 0 0 1-.43-1.1V1.842a1.495 1.495 0 0 1 .43-1.115 1.47 1.47 0 0 1 1.09-.432 1.506 1.506 0 0 1 1.191.565l12.99 17.25V1.842a1.472 1.472 0 0 1 .447-1.115 1.521 1.521 0 0 1 1.103-.432 1.464 1.464 0 0 1 1.103.432 1.548 1.548 0 0 1 .417 1.115v20.133c.01.408-.14.803-.417 1.101a1.44 1.44 0 0 1-1.103.446 1.729 1.729 0 0 1-.64-.134 1.252 1.252 0 0 1-.552-.402L28.843 5.738v16.238a1.52 1.52 0 0 1-.43 1.101 1.493 1.493 0 0 1-1.118.446ZM52.827 23.524a1.525 1.525 0 0 1-1.548-1.547V1.844a1.473 1.473 0 0 1 .447-1.115 1.64 1.64 0 0 1 2.218 0 1.518 1.518 0 0 1 .433 1.115v20.133a1.535 1.535 0 0 1-.433 1.1 1.484 1.484 0 0 1-1.117.447ZM99.129 23.82a12.73 12.73 0 0 1-4.79-.884 10.862 10.862 0 0 1-3.738-2.468 11.151 11.151 0 0 1-2.436-3.77 13.745 13.745 0 0 1 0-9.592 11.17 11.17 0 0 1 2.427-3.761 10.845 10.845 0 0 1 3.74-2.461 13.502 13.502 0 0 1 9.576 0 10.977 10.977 0 0 1 6.181 6.222 13.718 13.718 0 0 1 0 9.592 10.956 10.956 0 0 1-6.181 6.245 12.648 12.648 0 0 1-4.78.878Zm0-2.794a8.922 8.922 0 0 0 3.561-.708 8.516 8.516 0 0 0 4.648-4.833 10.42 10.42 0 0 0 0-7.198 8.582 8.582 0 0 0-1.834-2.9 8.38 8.38 0 0 0-2.814-1.908 9.594 9.594 0 0 0-7.121 0 8.202 8.202 0 0 0-2.802 1.917 8.827 8.827 0 0 0-1.832 2.9 10.171 10.171 0 0 0 0 7.198 8.847 8.847 0 0 0 1.835 2.9 8.405 8.405 0 0 0 2.803 1.932 8.914 8.914 0 0 0 3.556.7ZM117.421 23.523a1.53 1.53 0 0 1-1.426-.919 1.533 1.533 0 0 1-.125-.628V1.843a1.474 1.474 0 0 1 .447-1.115 1.531 1.531 0 0 1 1.104-.432h5.363a8.19 8.19 0 0 1 3.962.942 6.894 6.894 0 0 1 2.696 2.572 7.356 7.356 0 0 1 .968 3.8 6.607 6.607 0 0 1-3.664 6.067 8.536 8.536 0 0 1-3.962.886h-3.815v7.413a1.526 1.526 0 0 1-.431 1.101 1.487 1.487 0 0 1-1.117.446Zm1.548-11.807h3.815a5.33 5.33 0 0 0 2.412-.52 4.03 4.03 0 0 0 1.638-1.46c.4-.637.607-1.375.596-2.125a4.496 4.496 0 0 0-.596-2.321 4.19 4.19 0 0 0-1.638-1.575 4.975 4.975 0 0 0-2.412-.565h-3.815v8.566Zm10.818 11.807a1.614 1.614 0 0 1-.759-.177 1.482 1.482 0 0 1-.58-.564l-5.37-8.621 3.015-.862 4.888 7.85c.355.576.404 1.116.149 1.62s-.704.756-1.346.754h.003ZM137.531 23.523a1.45 1.45 0 0 1-1.087-.446 1.51 1.51 0 0 1-.433-1.101V1.843a1.51 1.51 0 0 1 .433-1.115 1.456 1.456 0 0 1 1.087-.432 1.496 1.496 0 0 1 1.192.565l12.991 17.25V1.842a1.48 1.48 0 0 1 .456-1.115 1.517 1.517 0 0 1 1.103-.432 1.457 1.457 0 0 1 1.101.432 1.535 1.535 0 0 1 .417 1.115v20.133c.011.408-.139.803-.417 1.101a1.433 1.433 0 0 1-1.101.446 1.726 1.726 0 0 1-.642-.134 1.243 1.243 0 0 1-.55-.402l-13-17.249v16.238a1.545 1.545 0 0 1-.433 1.101 1.49 1.49 0 0 1-1.117.446ZM71.687 23.821a12.73 12.73 0 0 1-4.789-.885 10.854 10.854 0 0 1-3.745-2.468 11.18 11.18 0 0 1-2.428-3.777 13.672 13.672 0 0 1 0-9.584 11.198 11.198 0 0 1 2.428-3.762 10.852 10.852 0 0 1 3.74-2.46 13.502 13.502 0 0 1 9.577 0 10.996 10.996 0 0 1 6.18 6.222 13.745 13.745 0 0 1 0 9.59 10.944 10.944 0 0 1-6.183 6.246c-1.521.6-3.145.898-4.78.878Zm0-2.795a8.92 8.92 0 0 0 3.561-.708 8.512 8.512 0 0 0 4.649-4.833 10.426 10.426 0 0 0 0-7.198 8.589 8.589 0 0 0-1.832-2.9 8.449 8.449 0 0 0-2.817-1.916 9.594 9.594 0 0 0-7.12 0 8.213 8.213 0 0 0-2.801 1.917 8.807 8.807 0 0 0-1.832 2.908 10.196 10.196 0 0 0 0 7.198 8.847 8.847 0 0 0 1.834 2.9 8.373 8.373 0 0 0 2.8 1.933 8.92 8.92 0 0 0 3.558.699Zm8.137 2.021-6.218-6.215a1.495 1.495 0 0 1-.123-2.138 1.497 1.497 0 0 1 2.145-.064c.032.028.062.058.092.09l6.222 6.246c.28.276.445.648.462 1.04a1.527 1.527 0 0 1-.873 1.326 1.535 1.535 0 0 1-1.581-.16 1.337 1.337 0 0 1-.123-.125h-.003Z" fill="#F0F0F5" />
    <path d="M83.419.098a.325.325 0 0 0-.415-.042l-11.255 7.5a.326.326 0 0 0-.096.44 13.008 13.008 0 0 0 1.708 2.124L83.419.098Z" fill="#BB51FC" />
    <path d="M83.417.098a.32.32 0 0 1 .04.414l-7.514 11.232a.328.328 0 0 1-.44.098 13.134 13.134 0 0 1-2.128-1.708L83.417.098Z" fill="#42CD60" />
</svg>