<svg width="152" height="26" viewBox="0 0 152 26" fill="none" xmlns="http://www.w3.org/2000/svg">
<path fill-rule="evenodd" clip-rule="evenodd" d="M91.6209 6.90118C92.9912 6.90118 93.9989 7.28924 94.6703 7.87469C94.9432 8.11244 95.3669 7.9197 95.3669 7.55751C95.3669 7.32468 95.5553 7.13556 95.7879 7.13556H97.8592C98.0918 7.13556 98.2805 7.32468 98.2805 7.55751V18.6317C98.2805 22.0205 96.5374 25.1752 91.7771 25.1752C88.5986 25.1752 86.3301 23.3039 85.812 20.936C85.7645 20.7184 85.8249 20.4429 86.1073 20.4403H88.3918C88.3934 20.4406 88.3957 20.4414 88.3975 20.4414C88.5627 20.4414 88.7166 20.5728 88.7917 20.7412C88.7925 20.743 88.7948 20.7435 88.7958 20.7451C89.2825 21.8151 90.3286 22.5423 91.6989 22.5423C94.0921 22.5423 95.2889 21.3171 95.2889 18.7362V18.5727C95.2889 18.2061 94.8624 18.0217 94.5846 18.2605C93.9064 18.8441 92.9011 19.2575 91.6209 19.2575C88.239 19.2575 85.7679 16.6505 85.7679 13.0791C85.7679 9.69029 88.1352 6.90118 91.6209 6.90118ZM102.535 7.13556C102.67 7.13556 102.791 7.21421 102.847 7.33632L106.076 14.4549C106.199 14.7265 106.586 14.7216 106.702 14.4474L109.717 7.34434C109.77 7.21757 109.894 7.13556 110.032 7.13556H112.474C112.723 7.13556 112.889 7.39298 112.786 7.61986L105.032 24.7654C104.977 24.8877 104.855 24.9666 104.72 24.9666H102.249C101.999 24.9666 101.834 24.7079 101.938 24.4808L104.692 18.4661C104.734 18.373 104.733 18.2659 104.688 18.1735L99.5861 7.62788C99.4759 7.40048 99.6414 7.13556 99.8938 7.13556H102.535ZM55.1822 14.2104C55.4267 14.2104 55.5919 14.399 55.6262 14.5214C56.0729 16.1003 57.5201 17.2577 59.239 17.2577C60.9581 17.2577 62.4051 16.1003 62.8517 14.5214C62.8863 14.399 63.002 14.2104 63.3394 14.2104H65.1416L65.2046 14.2179C65.6187 14.2681 65.898 14.6696 65.8007 15.0761C65.0895 18.0476 62.4224 20.2564 59.239 20.2564C56.0558 20.2564 53.3885 18.0476 52.6773 15.0761C52.5799 14.6696 52.8593 14.2681 53.2734 14.2179L53.3363 14.2104H55.1822ZM74.1167 14.2104C74.3612 14.2104 74.5264 14.399 74.5608 14.5214C75.0074 16.1003 76.4544 17.2577 78.1735 17.2577C79.8926 17.2577 81.3396 16.1003 81.7862 14.5214C81.8208 14.399 81.9365 14.2104 82.2739 14.2104H84.0761L84.1391 14.2179C84.5532 14.2681 84.8325 14.6696 84.7352 15.0761C84.024 18.0476 81.3569 20.2564 78.1735 20.2564C74.9903 20.2564 72.323 18.0476 71.6118 15.0761C71.5144 14.6696 71.7938 14.2681 72.2079 14.2179L72.2708 14.2104H74.1167ZM24.0984 6.74468C28 6.74468 29.4829 8.9605 29.4829 11.4891V17.7979C29.4829 18.431 29.5226 18.9448 29.5624 19.3002C29.5944 19.5843 29.3724 19.8311 29.0871 19.8311H27.2335C26.9911 19.8311 26.7866 19.6513 26.7587 19.4099C26.7582 19.4047 26.7577 19.3996 26.7569 19.3944C26.7128 19.0022 26.2463 18.8377 25.9522 19.1C25.2508 19.725 24.2163 20.2223 22.7972 20.2223C20.1441 20.2223 18.5053 18.3973 18.5053 16.39C18.5053 14.122 20.1702 12.8706 22.3292 12.5578L25.5807 12.0627C26.3093 11.9584 26.5176 11.5934 26.5176 11.1505C26.5176 10.0815 25.7891 9.22128 24.1242 9.22128C22.7278 9.22128 21.8756 10.0085 21.6022 11.0677C21.5384 11.3145 21.2862 11.4617 21.0381 11.4053L19.3786 11.0289C18.9516 10.9318 18.7848 10.6786 18.8422 10.423C19.2888 8.42964 21.2002 6.74468 24.0984 6.74468ZM9.28715 0.957757C13.6586 0.957757 16.375 3.36606 17.3937 6.31634C17.5138 6.66379 17.3191 7.04279 16.9711 7.15999L15.2974 7.72423C14.9556 7.83935 14.5815 7.66265 14.4597 7.32245C13.7634 5.37879 12.0905 3.90313 9.28715 3.90313C6.24315 3.90313 3.19967 6.11921 3.19967 10.6026C3.19967 14.9305 6.16518 17.2242 9.31296 17.2242C12.1109 17.2242 13.8251 15.6057 14.5898 13.7547C14.7256 13.4259 15.0824 13.2494 15.4198 13.3601L17.0372 13.8905C17.3898 14.0061 17.5879 14.3903 17.4629 14.7403C16.4341 17.6236 13.6966 20.2221 9.31296 20.2221C4.34436 20.2221 0 16.6245 0 10.6026C0 4.58094 4.50029 0.957757 9.28715 0.957757ZM45.0811 6.74466C48.9835 6.74466 51.2723 9.32551 51.2723 13.3399C51.2723 13.5342 51.2643 13.7168 51.2532 13.8697C51.2349 14.1147 51.0343 14.3046 50.7896 14.3046H42.455C42.1612 14.3046 41.9421 14.5749 41.9984 14.8639C42.3156 16.495 43.7069 17.615 45.3932 17.615C47.0175 17.615 47.9379 16.8477 48.4134 15.794C48.5123 15.5748 48.7529 15.4584 48.9817 15.5308L50.6566 16.0617C50.913 16.1429 51.0513 16.4262 50.9509 16.6761C50.148 18.6715 48.219 20.222 45.3932 20.222C41.9594 20.222 38.9156 17.7192 38.9156 13.4183C38.9156 9.40364 41.8814 6.74466 45.0811 6.74466ZM37.8052 6.97915C37.9291 6.97915 38.0474 6.98536 38.1543 6.99441C38.4127 7.01615 38.6115 7.22984 38.6115 7.48958V9.57863C38.6115 9.86502 38.3701 10.0945 38.0851 10.0733C37.9268 10.0614 37.7719 10.0554 37.6227 10.0554C35.2817 10.0554 34.2152 11.4108 34.2152 13.7831V19.3332C34.2152 19.6082 33.9927 19.8309 33.7182 19.8309H31.6943C31.4198 19.8309 31.1975 19.6082 31.1975 19.3332V7.63342C31.1975 7.35841 31.4198 7.13567 31.6943 7.13567H33.6403C33.9147 7.13567 34.137 7.35841 34.137 7.63342C34.137 8.07348 34.6543 8.28665 34.9796 7.99095C35.6968 7.33979 36.6931 6.97915 37.8052 6.97915ZM69.3607 0.957447C69.6917 0.957447 69.9599 1.2265 69.9599 1.5579V19.2304C69.9599 19.5621 69.6917 19.8309 69.3607 19.8309H67.5417C67.2107 19.8309 66.9422 19.5621 66.9422 19.2304V1.5579C66.9422 1.2265 67.2107 0.957447 67.5417 0.957447H69.3607ZM25.9675 14.0738L23.2136 14.487C22.2773 14.6435 21.5227 15.1645 21.5227 16.2074C21.5227 17.0678 22.1732 17.8499 23.3698 17.8499C25.0605 17.8499 26.5176 17.0417 26.5176 14.5651V14.5488C26.5176 14.2555 26.2571 14.0304 25.9675 14.0738ZM92.115 9.5079C90.1902 9.5079 88.8113 10.9155 88.8113 13.0791C88.8113 15.2952 90.138 16.6767 92.115 16.6767C94.0404 16.6767 95.3669 15.2693 95.3669 13.0791C95.3669 10.9155 93.988 9.5079 92.115 9.5079ZM59.239 6.69064C62.4222 6.69064 65.0895 8.89948 65.8007 11.871C65.8981 12.2774 65.6187 12.6789 65.2047 12.7291L65.1417 12.7369H63.2958C63.0513 12.7369 62.8861 12.548 62.8518 12.4259C62.4051 10.8468 60.9581 9.68931 59.239 9.68931C57.5199 9.68931 56.0729 10.8468 55.6263 12.4259C55.5917 12.548 55.476 12.7369 55.1386 12.7369H53.3364L53.2734 12.7291C52.8593 12.6789 52.58 12.2774 52.6773 11.871C53.3885 8.89948 56.0556 6.69064 59.239 6.69064ZM78.1735 6.69064C81.3567 6.69064 84.024 8.89948 84.7353 11.871C84.8326 12.2774 84.5532 12.6789 84.1392 12.7291L84.0762 12.7369H82.2303C81.9858 12.7369 81.8206 12.548 81.7863 12.4259C81.3396 10.8468 79.8924 9.68931 78.1735 9.68931C76.4544 9.68931 75.0074 10.8468 74.5608 12.4259C74.5262 12.548 74.4106 12.7369 74.0731 12.7369H72.2709L72.2079 12.7291C71.7938 12.6789 71.5145 12.2774 71.6118 11.871C72.323 8.89948 74.9901 6.69064 78.1735 6.69064ZM45.1071 9.27326C43.4792 9.27326 42.4439 10.3461 42.1158 11.5067C42.0332 11.7993 42.2635 12.0888 42.5673 12.0888H47.7053C47.9991 12.0888 48.2221 11.8182 48.1628 11.5294C47.9067 10.2851 46.9225 9.27326 45.1071 9.27326ZM138.167 0C145.331 0 151.139 5.82038 151.139 13C151.139 20.1799 145.331 26 138.167 26C131.002 26 125.194 20.1799 125.194 13C125.194 5.82038 131.002 0 138.167 0ZM131.649 14.4229H129.803L129.74 14.4304C129.326 14.4808 129.047 14.8821 129.144 15.2885C129.855 18.26 132.522 20.4689 135.706 20.4689C138.889 20.4689 141.556 18.26 142.267 15.2885C142.365 14.8821 142.085 14.4808 141.671 14.4304L141.608 14.4229H139.806C139.469 14.4229 139.353 14.6117 139.318 14.7339C138.872 16.313 137.424 17.4704 135.706 17.4704C133.986 17.4704 132.539 16.313 132.093 14.7339C132.058 14.6117 131.893 14.4229 131.649 14.4229ZM140.869 5.53114C137.685 5.53114 135.018 7.73998 134.307 10.7112C134.21 11.1177 134.489 11.5189 134.903 11.5694L134.966 11.5771H136.768C137.106 11.5771 137.222 11.388 137.256 11.2661C137.702 9.68701 139.15 8.52929 140.869 8.52929C142.588 8.52929 144.035 9.68701 144.482 11.2661C144.516 11.388 144.681 11.5771 144.926 11.5771H146.771L146.834 11.5694C147.249 11.5189 147.528 11.1177 147.431 10.7112C146.719 7.73998 144.052 5.53114 140.869 5.53114ZM113.115 1.15362C113.274 1.15362 113.423 1.18286 113.564 1.24184C113.704 1.30083 113.827 1.38206 113.933 1.4858C114.038 1.58903 114.121 1.71139 114.184 1.85213C114.246 1.99287 114.276 2.14499 114.276 2.30823C114.276 2.47587 114.246 2.63058 114.184 2.77235C114.121 2.91412 114.038 3.03752 113.933 3.14178C113.827 3.2463 113.704 3.32779 113.564 3.38548C113.423 3.44343 113.274 3.47241 113.115 3.47241C112.956 3.47241 112.806 3.44343 112.664 3.38548C112.522 3.32779 112.399 3.2463 112.292 3.14178C112.186 3.03752 112.102 2.91412 112.04 2.77235C111.978 2.63058 111.947 2.47587 111.947 2.30823C111.947 2.14499 111.978 1.99287 112.04 1.85213C112.102 1.71139 112.186 1.58903 112.292 1.4858C112.399 1.38206 112.522 1.30083 112.664 1.24184C112.806 1.18286 112.956 1.15362 113.115 1.15362ZM113.115 1.32437C112.979 1.32437 112.852 1.34946 112.735 1.40043C112.618 1.45088 112.517 1.52021 112.431 1.60817C112.346 1.69613 112.279 1.80039 112.23 1.92017C112.182 2.04021 112.157 2.16956 112.157 2.30823C112.157 2.45104 112.182 2.58298 112.23 2.70431C112.279 2.82513 112.346 2.93042 112.431 3.01916C112.517 3.10815 112.618 3.17826 112.735 3.22871C112.852 3.27942 112.979 3.30477 113.115 3.30477C113.249 3.30477 113.374 3.27942 113.489 3.22871C113.605 3.17826 113.706 3.10815 113.791 3.01916C113.877 2.93042 113.945 2.82513 113.993 2.70431C114.042 2.58298 114.066 2.45104 114.066 2.30823C114.066 2.16956 114.042 2.04021 113.993 1.92017C113.945 1.80039 113.877 1.69613 113.791 1.60817C113.706 1.52021 113.605 1.45088 113.489 1.40043C113.374 1.34946 113.249 1.32437 113.115 1.32437ZM113.186 1.63456C113.347 1.63456 113.466 1.66664 113.544 1.7308C113.621 1.79496 113.66 1.89223 113.66 2.02262C113.66 2.14499 113.626 2.23424 113.558 2.29116C113.489 2.34833 113.405 2.38196 113.304 2.39231L113.691 2.99122H113.465L113.096 2.40757H112.873V2.99122H112.662V1.63456H113.186ZM113.152 1.80531H112.873V2.23683H113.093C113.141 2.23683 113.185 2.23528 113.228 2.23217C113.27 2.22933 113.308 2.22053 113.341 2.20578C113.374 2.1913 113.4 2.16905 113.42 2.13904C113.44 2.10929 113.449 2.06738 113.449 2.01331C113.449 1.96777 113.441 1.93155 113.423 1.90465C113.405 1.87774 113.383 1.85705 113.355 1.84282C113.327 1.82807 113.295 1.81824 113.259 1.81307C113.223 1.80815 113.187 1.80531 113.152 1.80531Z" fill="#1B3251"/>
</svg>
