<?xml version="1.0" encoding="UTF-8"?> <svg xmlns="http://www.w3.org/2000/svg" width="120" height="26" viewBox="0 0 120 26" fill="none"><path fill-rule="evenodd" clip-rule="evenodd" d="M12.289 0.0273729L8.72794 2.07325C8.56687 2.16579 8.46744 2.33818 8.46744 2.52491V11.6437C8.46744 11.6799 8.4768 11.7154 8.49459 11.7468C8.55113 11.8466 8.67728 11.8813 8.77637 11.8244L12.3895 9.74856C12.5184 9.67453 12.5979 9.53662 12.5979 9.38723V0.208036C12.5979 0.171885 12.5885 0.136359 12.5708 0.104959C12.5142 0.00518111 12.3881 -0.0295553 12.289 0.0273729ZM12.289 14.1756L8.72794 16.2215C8.56687 16.314 8.46744 16.4864 8.46744 16.6732V25.792C8.46744 25.8281 8.4768 25.8636 8.49459 25.895C8.55113 25.9948 8.67728 26.0296 8.77637 25.9726L12.3895 23.8968C12.5184 23.8228 12.5979 23.6849 12.5979 23.5355V14.3563C12.5979 14.3201 12.5885 14.2846 12.5708 14.2532C12.5142 14.1534 12.3881 14.1187 12.289 14.1756ZM3.82153 4.91684L0.260496 6.96272C0.0994284 7.05526 0 7.22765 0 7.41438V20.6944C0 20.7306 0.00935699 20.7661 0.0271484 20.7975C0.0836834 20.8973 0.209841 20.932 0.30893 20.8751L3.92206 18.7993C4.05092 18.7253 4.13046 18.5873 4.13046 18.438V5.09751C4.13046 5.06136 4.1211 5.02583 4.10331 4.99443C4.04678 4.89465 3.92062 4.85992 3.82153 4.91684ZM20.3434 5.33297L16.7823 7.37885C16.6213 7.47139 16.5218 7.64378 16.5218 7.83051V21.1106C16.5218 21.1467 16.5312 21.1822 16.549 21.2136C16.6055 21.3134 16.7317 21.3481 16.8308 21.2912L20.4439 19.2154C20.5728 19.1414 20.6523 19.0035 20.6523 18.8541V5.51363C20.6523 5.47748 20.6429 5.44196 20.6252 5.41056C20.5686 5.31078 20.4425 5.27604 20.3434 5.33297ZM29.168 6.47528V19.692C29.168 19.8116 29.2643 19.9087 29.3831 19.9087H30.8115C30.9303 19.9087 31.0267 19.8116 31.0267 19.692V13.7856H37.2611V19.692C37.2611 19.8116 37.3574 19.9087 37.4763 19.9087H38.9046C39.0235 19.9087 39.1198 19.8116 39.1198 19.692V6.47528C39.1198 6.35561 39.0235 6.25861 38.9046 6.25861H37.4763C37.3574 6.25861 37.2611 6.35561 37.2611 6.47528V12.0696H31.0267V6.47528C31.0267 6.35561 30.9303 6.25861 30.8115 6.25861H29.3831C29.2643 6.25861 29.168 6.35561 29.168 6.47528ZM45.7995 15.1311V19.692C45.7995 19.8116 45.8959 19.9087 46.0147 19.9087H47.4431C47.5619 19.9087 47.6582 19.8116 47.6582 19.692V15.1311L52.2129 6.50625C52.2258 6.48189 52.2325 6.45472 52.2325 6.42713C52.2325 6.33406 52.1576 6.25861 52.0652 6.25861H50.5135C50.4246 6.25861 50.343 6.30832 50.3017 6.38766L46.7482 13.2201L43.1948 6.38766C43.1535 6.30832 43.0719 6.25861 42.983 6.25861H41.3926C41.3652 6.25861 41.3382 6.26538 41.314 6.27834C41.2324 6.32203 41.2014 6.42407 41.2448 6.50625L45.7995 15.1311ZM53.5635 17.1786C53.5635 19.0312 54.4348 19.9087 56.2741 19.9087H60.4175C62.2568 19.9087 63.1281 19.0312 63.1281 17.1786V15.3066C63.1281 13.3566 61.9083 12.8691 60.34 12.5181L56.6033 11.6601C55.8094 11.4846 55.4609 11.2311 55.4609 10.3926V8.96912C55.4609 8.20861 55.7514 7.91611 56.5065 7.91611H60.0303C60.7854 7.91611 61.0758 8.20861 61.0758 8.96912V9.46745C61.0758 9.58711 61.1721 9.68412 61.291 9.68412H62.7C62.8188 9.68412 62.9151 9.58711 62.9151 9.46745V8.98862C62.9151 7.13611 62.0438 6.25861 60.2045 6.25861H56.3128C54.4735 6.25861 53.6022 7.13611 53.6022 8.98862V10.6461C53.6022 12.5961 54.8026 13.0836 56.3903 13.4346L60.1077 14.2731C60.9209 14.4681 61.2694 14.7216 61.2694 15.5601V17.1981C61.2694 17.9586 60.979 18.2511 60.2045 18.2511H56.4484C55.6739 18.2511 55.3835 17.9586 55.3835 17.1981V16.5438C55.3835 16.4241 55.2871 16.3271 55.1683 16.3271H53.7787C53.6598 16.3271 53.5635 16.4241 53.5635 16.5438V17.1786ZM65.7806 17.1786C65.7806 19.0312 66.6519 19.9087 68.4912 19.9087H73.0025C74.8418 19.9087 75.7131 19.0312 75.7131 17.1786V8.98862C75.7131 7.13611 74.8418 6.25861 73.0025 6.25861H68.4912C66.6519 6.25861 65.7806 7.13611 65.7806 8.98862V17.1786ZM72.7895 18.1926H68.6849C67.9298 18.1926 67.6393 17.9001 67.6393 17.1201V9.04712C67.6393 8.26711 67.9298 7.97461 68.6849 7.97461H72.7895C73.564 7.97461 73.8544 8.26711 73.8544 9.04712V17.1201C73.8544 17.9001 73.564 18.1926 72.7895 18.1926ZM78.729 6.47528V19.692C78.729 19.8116 78.8253 19.9087 78.9442 19.9087H86.3745C86.4709 19.9087 86.5556 19.844 86.5816 19.7505L86.939 18.4678C86.9444 18.4488 86.9471 18.4291 86.9471 18.4093C86.9471 18.2897 86.8507 18.1926 86.7319 18.1926H80.8029C80.684 18.1926 80.5877 18.0956 80.5877 17.976V6.47528C80.5877 6.35561 80.4914 6.25861 80.3725 6.25861H78.9442C78.8253 6.25861 78.729 6.35561 78.729 6.47528ZM96.7589 16.1841L97.9488 19.7608C97.9782 19.8491 98.0603 19.9087 98.1528 19.9087H99.7621C99.7835 19.9087 99.8047 19.9051 99.8248 19.898C99.9246 19.8631 99.9775 19.7534 99.9428 19.6529L95.3763 6.40423C95.3463 6.31706 95.2647 6.25861 95.173 6.25861H93.0784C92.9867 6.25861 92.9051 6.31706 92.8751 6.40423L88.3086 19.6529C88.3016 19.6732 88.298 19.6946 88.298 19.7161C88.298 19.8224 88.3836 19.9087 88.4893 19.9087H90.0017C90.0942 19.9087 90.1764 19.8491 90.2058 19.7608L91.3957 16.1841H96.7589ZM96.2944 14.4681H92.0542L94.184 8.07211L96.2944 14.4681ZM103.326 7.95511V19.692C103.326 19.8116 103.422 19.9087 103.541 19.9087H104.97C105.088 19.9087 105.185 19.8116 105.185 19.692V7.95511H108.977C109.096 7.95511 109.193 7.85811 109.193 7.73845V6.47528C109.193 6.35561 109.096 6.25861 108.977 6.25861H99.5528C99.4339 6.25861 99.3376 6.35561 99.3376 6.47528V7.73845C99.3376 7.85811 99.4339 7.95511 99.5528 7.95511H103.326ZM111.531 6.47528V19.692C111.531 19.8116 111.627 19.9087 111.746 19.9087H119.785C119.904 19.9087 120 19.8116 120 19.692V18.4093C120 18.2897 119.904 18.1926 119.785 18.1926H113.604C113.486 18.1926 113.389 18.0956 113.389 17.976V13.7856H119.355C119.474 13.7856 119.57 13.6886 119.57 13.569V12.2863C119.57 12.1666 119.474 12.0696 119.355 12.0696H113.389V8.19128C113.389 8.07162 113.486 7.97461 113.604 7.97461H119.785C119.904 7.97461 120 7.87761 120 7.75795V6.47528C120 6.35561 119.904 6.25861 119.785 6.25861H111.746C111.627 6.25861 111.531 6.35561 111.531 6.47528Z" fill="#1A1243"></path></svg> 