<svg width="134" height="18" viewBox="0 0 134 18" fill="none" xmlns="http://www.w3.org/2000/svg">
<path fill-rule="evenodd" clip-rule="evenodd" d="M16.2992 7.42874C16.2987 6.98973 16.2982 6.55089 16.2982 6.11205H16.3115V2.03685C16.3115 2.00282 16.3116 1.96867 16.3117 1.93443C16.3123 1.76345 16.313 1.59042 16.2982 1.42047C16.2317 0.68436 15.7086 0.143364 14.9549 0.0236358C14.3121 -0.0783552 13.6294 0.303002 13.3368 0.914947C13.2171 1.16327 13.1905 1.4249 13.1905 1.6954V4.22743C13.1905 4.70635 13.1907 5.18526 13.191 5.66418C13.1919 7.10092 13.1927 8.53766 13.186 9.97439C13.1816 11.1052 12.8314 12.1207 12.122 13.0031C10.7876 14.6749 8.53108 15.2602 6.54939 14.595C4.76721 13.9964 3.65445 12.7636 3.25545 10.919C3.18009 10.5597 3.16679 10.1828 3.16679 9.81472C3.16147 8.23394 3.16094 6.65155 3.16041 5.06947C3.16005 4.0154 3.1597 2.96147 3.15793 1.90825C3.15793 1.64219 3.14019 1.36725 3.06925 1.1145C2.87419 0.436034 2.21363 -0.0295769 1.53534 0.00146381C0.830444 0.0369389 0.231949 0.520287 0.0767842 1.20762C0.0191514 1.44707 0.00585155 1.69983 0.00585155 1.94372L0.005844 1.94815C0.00141323 4.54522 -0.00301001 7.13787 0.00585155 9.73052C0.0102848 10.2671 0.0368846 10.808 0.129984 11.3313C0.493514 13.3579 1.4777 15.0385 3.12689 16.2801C5.16177 17.81 7.44049 18.3466 9.94083 17.7701C11.8826 17.3222 13.4387 16.2579 14.649 14.6926C15.6997 13.3357 16.2893 11.8013 16.2982 10.0675C16.3011 9.18639 16.3002 8.30724 16.2992 7.42874ZM132.995 7.31794L132.995 7.32816V7.32864C132.999 8.22659 133.003 9.12372 132.987 10.023C132.938 12.657 131.755 14.719 129.711 16.3065C128.217 17.4683 126.497 18.0536 124.599 17.9872C120.681 17.8497 117.458 15.1136 116.811 11.2513C116.73 10.7857 116.712 10.3068 116.712 9.83677C116.706 7.86052 116.707 5.88179 116.707 3.90432V3.9039C116.708 3.24582 116.708 2.58788 116.708 1.93021C116.708 1.74397 116.712 1.55773 116.73 1.37592C116.793 0.710756 117.36 -0.0120491 118.304 0.0145572C119.262 0.0411636 119.754 0.737363 119.834 1.43357C119.85 1.56568 119.847 1.70014 119.845 1.83523V1.83534C119.844 1.88612 119.843 1.93699 119.843 1.98786C119.843 2.85257 119.843 3.71727 119.844 4.58198C119.845 6.31139 119.846 8.0408 119.843 9.77021C119.843 10.3068 119.887 10.8389 120.042 11.3577C120.618 13.2822 122.321 14.6481 124.333 14.8254C125.681 14.9451 126.91 14.6436 127.982 13.8055C129.193 12.8654 129.831 11.6105 129.867 10.0806C129.888 9.19968 129.883 8.31873 129.879 7.43625V7.43543C129.877 7.06106 129.875 6.68642 129.875 6.31139V1.86369C129.875 1.84674 129.875 1.82973 129.875 1.81267L129.874 1.77479V1.77468C129.873 1.59841 129.872 1.418 129.906 1.24732C130.061 0.50234 130.798 -0.056393 131.533 0.00568847C132.318 0.0677699 132.917 0.653109 132.987 1.43357C133.002 1.58865 133.002 1.74066 133.001 1.89471L133.001 1.98786V6.12514C132.996 6.12958 132.996 6.12958 132.992 6.12958C132.992 6.52603 132.993 6.92207 132.995 7.31794ZM97.8446 10.7624C97.8419 11.1526 97.8393 11.5429 97.8393 11.9337C97.8393 12.2898 97.839 12.6456 97.8387 13.0012V13.0018V13.0025C97.8379 14.068 97.837 15.1316 97.8437 16.1952C97.8437 16.4613 97.8616 16.7407 97.9464 16.9846C98.1856 17.6674 98.9256 18.0932 99.6129 17.9823C100.362 17.8626 100.907 17.2551 100.947 16.5012C100.954 16.3782 100.953 16.2551 100.952 16.1321C100.952 16.0911 100.952 16.05 100.952 16.009V9.27316C100.952 9.14547 100.951 9.01745 100.95 8.88919V8.88848V8.88836V8.88824C100.947 8.54467 100.944 8.1994 100.961 7.85413C101.031 6.51939 101.524 5.36644 102.525 4.4707C103.98 3.17142 105.682 2.82111 107.526 3.3887C109.371 3.95187 110.501 5.23341 110.904 7.12689C110.984 7.48571 110.984 7.86462 110.984 8.23685L110.984 8.29314C110.986 9.58964 110.986 10.8861 110.986 12.1826V12.1958C110.986 13.489 110.986 14.7822 110.988 16.0755C110.988 16.3017 110.993 16.5323 111.042 16.7495C111.206 17.4989 111.858 18.0089 112.598 17.9911C113.316 17.969 113.928 17.4635 114.083 16.7362C114.128 16.5366 114.137 16.3282 114.137 16.1243C114.137 15.399 114.138 14.6741 114.139 13.9494L114.139 13.9332V13.9328V13.9323C114.141 11.9861 114.144 10.041 114.128 8.09359C114.123 7.50382 114.056 6.90074 113.932 6.31983C112.971 1.76129 108.276 -0.872743 103.975 0.275763C100.539 1.19368 97.7464 4.47956 97.8348 8.22662C97.8562 9.07302 97.8504 9.91731 97.8446 10.7624ZM74.7026 8.14699C74.7026 7.65476 74.6716 7.15368 74.5873 6.67033C74.2327 4.68816 73.2795 3.03413 71.688 1.79694C69.6752 0.231598 67.4009 -0.3227 64.8917 0.204992C63.1184 0.57748 61.6643 1.50427 60.454 2.83459C60.401 2.89273 60.3487 2.95088 60.2949 3.01056L60.2946 3.01094C60.2091 3.10588 60.1202 3.20468 60.0195 3.3135C59.8644 3.13169 59.7314 2.98092 59.5984 2.83015C57.4526 0.338024 53.875 -0.664149 50.7274 0.479924C49.2289 1.02535 47.859 2.02309 46.8571 3.34454C46.4403 2.7725 45.9394 2.25812 45.3454 1.79694C43.3326 0.231598 41.0583 -0.3227 38.5491 0.204992C36.7758 0.57748 35.3216 1.50427 34.1113 2.83459C34.059 2.89202 34.0073 2.94945 33.9543 3.00835L33.9537 3.00898C33.8677 3.10451 33.7783 3.20393 33.6769 3.3135C33.5218 3.13169 33.3888 2.98092 33.2558 2.83015C31.11 0.338024 27.5324 -0.664149 24.3848 0.479924C21.3701 1.57521 18.8608 4.51079 18.8741 8.22681C18.88 9.99717 18.8781 11.7675 18.8761 13.5379V13.5392C18.8751 14.4246 18.8741 15.31 18.8741 16.1954L18.874 16.2564V16.2565V16.2565V16.2565C18.8734 16.379 18.8729 16.5039 18.8919 16.6255C19.0071 17.4193 19.6943 18.0091 20.479 17.9913C21.246 17.9736 21.9243 17.3749 21.9908 16.6255C22.0129 16.3994 22.0174 16.1732 22.0174 15.9471C22.0174 13.4549 22.0174 10.9628 22.0218 8.47069C22.0218 8.18246 22.0262 7.89422 22.0484 7.60599C22.1637 6.16924 22.8197 5.0163 23.9592 4.1516C24.9477 3.39775 26.0782 3.07404 27.3151 3.15829C29.2614 3.28689 30.6977 4.21368 31.5844 5.9564C31.9435 6.6659 32.0588 7.44192 32.0588 8.23123V15.9559L32.0585 16.0583V16.0584C32.0579 16.2294 32.0573 16.4024 32.0721 16.5723C32.0854 16.7143 32.112 16.8606 32.1607 16.9936C32.4179 17.6632 33.1538 18.0933 33.841 17.978C34.5635 17.8583 35.1133 17.2774 35.171 16.5546C35.1842 16.4015 35.1826 16.2459 35.1809 16.0915C35.1803 16.0402 35.1798 15.9891 35.1798 15.9382C35.1798 15.2802 35.1795 14.622 35.1792 13.9636V13.9632V13.9628V13.9624V13.9598C35.1784 11.9837 35.1776 10.0065 35.1843 8.03169C35.1886 6.74128 35.6187 5.60165 36.5319 4.68372C38.0038 3.22038 39.7683 2.80354 41.7189 3.37115C43.5942 3.92101 44.7469 5.21586 45.1459 7.13594C45.2167 7.4771 45.2212 7.83597 45.2257 8.19043L45.2257 8.19132V8.22237C45.23 9.53934 45.23 10.8608 45.23 12.1778V12.2177V16.191L45.2299 16.2513V16.2513V16.2514V16.2514C45.2293 16.3742 45.2288 16.4993 45.2478 16.6211C45.2877 16.8916 45.3986 17.1355 45.5492 17.3439L45.5537 17.3483C45.6024 17.4149 45.6601 17.477 45.7221 17.539L45.7532 17.5701C45.8064 17.6188 45.8641 17.6632 45.9216 17.7031C45.9328 17.7098 45.9428 17.7176 45.9529 17.7254C45.9628 17.7331 45.9727 17.7408 45.9838 17.7475C46.0219 17.771 46.0602 17.7906 46.0984 17.8102L46.0984 17.8102C46.1178 17.8202 46.1372 17.8301 46.1567 17.8406C46.1833 17.8539 46.2099 17.8671 46.2408 17.8805C46.2985 17.9026 46.3562 17.9203 46.4182 17.9337L46.4312 17.9372C46.4393 17.9395 46.4472 17.9419 46.4551 17.9443L46.4554 17.9444L46.4555 17.9445L46.4555 17.9445C46.4768 17.951 46.4976 17.9575 46.5201 17.9603C46.5733 17.9692 46.6265 17.9736 46.6797 17.978C46.6936 17.9795 46.707 17.9816 46.7201 17.9837L46.7203 17.9837C46.7449 17.9876 46.7691 17.9913 46.7951 17.9913H46.8217H46.835C46.8539 17.9913 46.8696 17.9881 46.8876 17.9844L46.897 17.9824C47.2605 17.9603 47.593 17.8184 47.8501 17.5834C47.9033 17.5346 47.9521 17.4813 47.9964 17.4281C48.0053 17.4193 48.0142 17.4104 48.0186 17.4016C48.1605 17.2286 48.2624 17.0202 48.3112 16.7985C48.3289 16.7364 48.3467 16.6699 48.3555 16.6033C48.3777 16.4393 48.3777 16.2753 48.3777 16.1111C48.3777 15.4659 48.378 14.8207 48.3783 14.1755V14.1753V14.1751V14.1749C48.3791 12.2265 48.3799 10.2786 48.3733 8.33323C48.3733 8.08934 48.3821 7.84544 48.3999 7.60599C48.5151 6.16924 49.1713 5.0163 50.3106 4.1516C51.2992 3.39775 52.4297 3.07404 53.6666 3.15829C55.6129 3.28689 57.0493 4.21368 57.9359 5.9564C58.295 6.6659 58.4102 7.44192 58.4102 8.23123V15.9559L58.41 16.0573C58.4094 16.2287 58.4088 16.4021 58.4235 16.5723C58.4368 16.7143 58.4634 16.8606 58.5122 16.9936C58.7693 17.6632 59.5053 18.0933 60.1924 17.978C60.9151 17.8583 61.4648 17.2774 61.5224 16.5546C61.5357 16.4014 61.5341 16.2456 61.5324 16.0911C61.5319 16.0399 61.5313 15.9889 61.5313 15.9382C61.5313 15.2768 61.531 14.6152 61.5308 13.9535V13.953V13.9526V13.9522C61.5299 11.9787 61.5291 10.0039 61.5357 8.03169C61.5402 6.74128 61.9702 5.60165 62.8834 4.68372C64.3376 3.22481 66.102 2.80354 68.0483 3.37558C69.9235 3.92545 71.0762 5.22028 71.4752 7.14038C71.5473 7.481 71.5506 7.83972 71.5538 8.19365V8.19375L71.555 8.30662C71.5594 10.8608 71.5594 13.415 71.5594 15.9693L71.5592 16.0249L71.5583 16.1094V16.1096C71.5566 16.2488 71.555 16.3874 71.5683 16.5236C71.6436 17.3572 72.3131 17.9869 73.1199 17.9958C73.9046 18.0046 74.5652 17.4238 74.6849 16.6122C74.707 16.4483 74.707 16.2842 74.707 16.1202V16.12C74.707 15.4541 74.7073 14.7884 74.7076 14.123C74.7084 12.1297 74.7093 10.1383 74.7026 8.14699ZM91.9262 15.8537C91.7218 15.9955 91.5888 16.0886 91.4558 16.1818C89.6831 17.4634 87.6966 18.0398 85.5288 17.858C81.4369 17.5121 78.4798 14.6165 77.6242 11.1754C76.4405 6.41728 79.2557 1.65918 83.9993 0.404252C88.8848 -0.890588 93.8542 2.22679 94.9093 7.12679C95.0646 7.85403 95.1405 8.5857 95.1405 9.33064C95.1354 10.5884 95.1361 11.8461 95.1368 13.1039V13.1088C95.1374 14.0533 95.1379 14.9978 95.136 15.9423C95.136 16.2084 95.1226 16.4834 95.0557 16.7361C94.8655 17.4589 94.2309 17.9068 93.4954 17.8802C92.7902 17.8536 92.2056 17.3747 92.0458 16.6696C92.0085 16.5155 91.9896 16.3578 91.9681 16.1775V16.1774L91.968 16.1772L91.968 16.1771L91.968 16.1768C91.9561 16.0771 91.9433 15.9704 91.9262 15.8537ZM91.9788 9.00257C92.0235 5.86299 89.3814 3.23339 86.2115 3.2467C83.3298 3.25556 80.5014 5.56588 80.4926 8.99811C80.4836 12.1155 82.9353 14.7362 86.207 14.7539C89.7179 14.7673 92.0324 11.8627 91.9788 9.00257Z" fill="#1B3251"/>
</svg>
