<svg width="189" height="30" viewBox="0 0 189 30" fill="none" xmlns="http://www.w3.org/2000/svg">
<path d="M47.0527 20.5336C46.9177 20.0914 46.7642 19.6368 46.5922 19.1701C46.4326 18.7033 46.273 18.2365 46.1133 17.7697H41.1401C40.9804 18.2365 40.8147 18.7033 40.6428 19.1701C40.4831 19.6368 40.3358 20.0914 40.2007 20.5336H37.2167C37.6956 19.1578 38.15 17.8864 38.5798 16.7194C39.0096 15.5524 39.4271 14.453 39.8323 13.4211C40.2498 12.3893 40.655 11.4127 41.048 10.4914C41.4532 9.55784 41.8707 8.64882 42.3005 7.76437H45.045C45.4625 8.64882 45.8739 9.55784 46.2791 10.4914C46.6843 11.4127 47.0896 12.3893 47.4948 13.4211C47.9123 14.453 48.3359 15.5524 48.7657 16.7194C49.1955 17.8864 49.6499 19.1578 50.1288 20.5336H47.0527ZM43.6083 10.6573C43.5469 10.8415 43.4548 11.0933 43.332 11.4127C43.2092 11.7321 43.068 12.1006 42.9083 12.5183C42.7487 12.9359 42.5707 13.3966 42.3742 13.9002C42.19 14.4039 41.9997 14.9321 41.8032 15.4849H45.4318C45.2353 14.9321 45.045 14.4039 44.8608 13.9002C44.6766 13.3966 44.4986 12.9359 44.3266 12.5183C44.167 12.1006 44.0258 11.7321 43.903 11.4127C43.7802 11.0933 43.682 10.8415 43.6083 10.6573Z" fill="#1A1243"/>
<path d="M50.9385 15.7612C50.9385 14.9014 51.0674 14.152 51.3253 13.5133C51.5955 12.8622 51.9454 12.3217 52.3752 11.8918C52.805 11.4619 53.2962 11.1363 53.8488 10.9152C54.4137 10.6941 54.9908 10.5835 55.5802 10.5835C56.9555 10.5835 58.0423 11.0073 58.8405 11.8549C59.6386 12.6903 60.0377 13.9248 60.0377 15.5586C60.0377 15.7183 60.0316 15.8964 60.0193 16.0929C60.007 16.2772 59.9947 16.443 59.9825 16.5904H53.7567C53.8181 17.1555 54.0821 17.6038 54.5487 17.9355C55.0154 18.2672 55.6416 18.433 56.4275 18.433C56.931 18.433 57.4222 18.39 57.9011 18.304C58.3923 18.2058 58.7913 18.0891 59.0983 17.9539L59.4667 20.1835C59.3194 20.2572 59.1229 20.3309 58.8773 20.4046C58.6317 20.4783 58.3554 20.5397 58.0484 20.5889C57.7537 20.6503 57.4344 20.6994 57.0906 20.7363C56.7468 20.7731 56.403 20.7915 56.0591 20.7915C55.1873 20.7915 54.4259 20.6626 53.7751 20.4046C53.1366 20.1466 52.6024 19.7965 52.1726 19.3543C51.7551 18.8998 51.442 18.3654 51.2332 17.7513C51.0368 17.1371 50.9385 16.4737 50.9385 15.7612ZM57.3853 14.711C57.373 14.4776 57.3301 14.2503 57.2564 14.0292C57.195 13.8081 57.0906 13.6116 56.9433 13.4396C56.8082 13.2676 56.6301 13.1263 56.4091 13.0158C56.2003 12.9052 55.9363 12.8499 55.6171 12.8499C55.3101 12.8499 55.0461 12.9052 54.825 13.0158C54.604 13.114 54.4198 13.2492 54.2724 13.4211C54.1251 13.5931 54.0084 13.7958 53.9225 14.0292C53.8488 14.2503 53.7935 14.4776 53.7567 14.711H57.3853Z" fill="#1A1243"/>
<path d="M67.9946 13.2737C67.7491 13.2123 67.4605 13.1509 67.1289 13.0895C66.7974 13.0158 66.4413 12.9789 66.0606 12.9789C65.8887 12.9789 65.6799 12.9974 65.4343 13.0342C65.201 13.0588 65.023 13.0895 64.9002 13.1263V20.5336H62.1557V11.3574C62.6469 11.1855 63.224 11.0258 63.8871 10.8784C64.5625 10.7187 65.3115 10.6388 66.1343 10.6388C66.2816 10.6388 66.4597 10.6511 66.6684 10.6757C66.8772 10.688 67.086 10.7125 67.2947 10.7494C67.5035 10.7739 67.7122 10.8108 67.921 10.8599C68.1297 10.8968 68.3078 10.9459 68.4551 11.0073L67.9946 13.2737Z" fill="#1A1243"/>
<path d="M78.8089 15.6691C78.8089 16.4307 78.6984 17.1309 78.4773 17.7697C78.2563 18.3962 77.937 18.9367 77.5195 19.3912C77.102 19.8334 76.5985 20.1773 76.0091 20.423C75.432 20.6687 74.7812 20.7915 74.0567 20.7915C73.3444 20.7915 72.6936 20.6687 72.1042 20.423C71.5271 20.1773 71.0297 19.8334 70.6122 19.3912C70.1947 18.9367 69.8693 18.3962 69.636 17.7697C69.4027 17.1309 69.286 16.4307 69.286 15.6691C69.286 14.9075 69.4027 14.2135 69.636 13.587C69.8816 12.9605 70.2131 12.4261 70.6306 11.9839C71.0604 11.5417 71.5639 11.1977 72.141 10.9521C72.7305 10.7064 73.369 10.5835 74.0567 10.5835C74.7566 10.5835 75.3951 10.7064 75.9723 10.9521C76.5617 11.1977 77.0652 11.5417 77.4827 11.9839C77.9002 12.4261 78.2256 12.9605 78.4589 13.587C78.6922 14.2135 78.8089 14.9075 78.8089 15.6691ZM76.0091 15.6691C76.0091 14.8215 75.8372 14.1582 75.4934 13.6791C75.1618 13.1878 74.6829 12.9421 74.0567 12.9421C73.4304 12.9421 72.9454 13.1878 72.6015 13.6791C72.2577 14.1582 72.0858 14.8215 72.0858 15.6691C72.0858 16.5167 72.2577 17.1923 72.6015 17.696C72.9454 18.1873 73.4304 18.433 74.0567 18.433C74.6829 18.433 75.1618 18.1873 75.4934 17.696C75.8372 17.1923 76.0091 16.5167 76.0091 15.6691Z" fill="#1A1243"/>
<path d="M154.26 17.7328C154.284 18.0276 154.297 18.2365 154.297 18.3593C154.309 18.4821 154.315 18.5866 154.315 18.6726C154.315 19.0411 154.278 19.4342 154.205 19.8518C154.143 20.2572 154.051 20.6687 153.928 21.0864C153.806 21.504 153.652 21.9217 153.468 22.3393C153.284 22.757 153.075 23.1562 152.842 23.537L150.687 23.0027C150.969 22.1919 151.165 21.4303 151.276 20.7178C151.386 20.0054 151.442 19.4157 151.442 18.9489C151.442 18.8752 151.436 18.7831 151.423 18.6726C151.423 18.5497 151.417 18.4269 151.405 18.304C151.405 18.1812 151.399 18.0645 151.386 17.9539C151.386 17.8434 151.386 17.7697 151.386 17.7328H154.26Z" fill="#1A1243"/>
<path d="M160.805 7.76437H163.678V20.5336H160.805V7.76437Z" fill="#1A1243"/>
<path d="M166.449 11.1732C166.915 11.0381 167.517 10.9152 168.254 10.8047C168.991 10.6818 169.764 10.6204 170.575 10.6204C171.397 10.6204 172.079 10.731 172.619 10.9521C173.172 11.1609 173.608 11.4619 173.927 11.8549C174.246 12.248 174.473 12.7148 174.608 13.2553C174.744 13.7958 174.811 14.3977 174.811 15.0611V20.5336H172.067V15.3927C172.067 14.5083 171.95 13.8818 171.717 13.5133C171.483 13.1448 171.047 12.9605 170.409 12.9605C170.212 12.9605 170.004 12.9728 169.783 12.9974C169.562 13.0096 169.365 13.0281 169.193 13.0526V20.5336H166.449V11.1732Z" fill="#1A1243"/>
<path d="M176.835 15.6875C176.835 14.9874 176.945 14.3302 177.166 13.716C177.4 13.0895 177.731 12.549 178.161 12.0945C178.591 11.6277 179.113 11.2592 179.727 10.9889C180.341 10.7187 181.041 10.5835 181.826 10.5835C182.342 10.5835 182.815 10.6327 183.245 10.731C183.675 10.8169 184.092 10.9459 184.497 11.1179L183.926 13.3106C183.668 13.2123 183.386 13.1263 183.079 13.0526C182.772 12.9789 182.428 12.9421 182.048 12.9421C181.237 12.9421 180.629 13.1939 180.224 13.6975C179.831 14.2012 179.635 14.8645 179.635 15.6875C179.635 16.5597 179.819 17.2353 180.187 17.7144C180.568 18.1935 181.225 18.433 182.158 18.433C182.49 18.433 182.846 18.4023 183.226 18.3409C183.607 18.2795 183.957 18.1812 184.276 18.0461L184.663 20.294C184.344 20.4292 183.945 20.5459 183.466 20.6441C182.987 20.7424 182.459 20.7915 181.882 20.7915C180.998 20.7915 180.236 20.6626 179.598 20.4046C178.959 20.1343 178.431 19.772 178.014 19.3175C177.608 18.863 177.308 18.3286 177.111 17.7144C176.927 17.0879 176.835 16.4123 176.835 15.6875Z" fill="#1A1243"/>
<path d="M189.5 19.0779C189.5 19.6307 189.322 20.0545 188.966 20.3493C188.622 20.6318 188.229 20.7731 187.787 20.7731C187.345 20.7731 186.946 20.6318 186.59 20.3493C186.246 20.0545 186.074 19.6307 186.074 19.0779C186.074 18.5251 186.246 18.1075 186.59 17.825C186.946 17.5301 187.345 17.3827 187.787 17.3827C188.229 17.3827 188.622 17.5301 188.966 17.825C189.322 18.1075 189.5 18.5251 189.5 19.0779Z" fill="#1A1243"/>
<path d="M84.6961 18.1637C85.1013 18.1637 85.4329 18.133 85.6908 18.0716C85.9609 17.9979 86.1758 17.9057 86.3354 17.7952C86.4951 17.6723 86.6056 17.5311 86.667 17.3714C86.7284 17.2117 86.7591 17.0336 86.7591 16.837C86.7591 16.4194 86.5626 16.0754 86.1697 15.8052C85.7767 15.5226 85.1013 15.2217 84.1435 14.9023C83.726 14.7549 83.3085 14.5891 82.891 14.4048C82.4735 14.2083 82.099 13.9687 81.7674 13.6862C81.4359 13.3914 81.1657 13.0413 80.9569 12.6359C80.7482 12.2182 80.6438 11.7146 80.6438 11.125C80.6438 10.5353 80.7543 10.0071 80.9754 9.54034C81.1964 9.06126 81.5095 8.65589 81.9148 8.32423C82.32 7.99256 82.8112 7.74074 83.3883 7.56876C83.9655 7.3845 84.6163 7.29237 85.3408 7.29237C86.2004 7.29237 86.9433 7.3845 87.5695 7.56876C88.1958 7.75302 88.7115 7.95571 89.1168 8.17682L88.2879 10.4432C87.9318 10.259 87.5327 10.0993 87.0906 9.96414C86.6608 9.81673 86.139 9.74303 85.525 9.74303C84.8373 9.74303 84.34 9.8413 84.033 10.0378C83.7383 10.2221 83.5909 10.5108 83.5909 10.9039C83.5909 11.1373 83.6462 11.3338 83.7567 11.4935C83.8672 11.6532 84.0207 11.8006 84.2172 11.9357C84.4259 12.0586 84.6593 12.1753 84.9171 12.2858C85.1873 12.3841 85.482 12.4885 85.8013 12.5991C86.4644 12.8447 87.0415 13.0904 87.5327 13.3361C88.0239 13.5695 88.4291 13.8459 88.7484 14.1653C89.0799 14.4846 89.3255 14.8593 89.4852 15.2892C89.6448 15.7192 89.7246 16.2413 89.7246 16.8555C89.7246 18.047 89.3071 18.9744 88.4721 19.6378C87.6371 20.2888 86.3784 20.6144 84.6961 20.6144C84.1312 20.6144 83.6216 20.5775 83.1673 20.5038C82.7129 20.4424 82.3077 20.3625 81.9516 20.2643C81.6078 20.166 81.3069 20.0616 81.049 19.951C80.8035 19.8405 80.5947 19.736 80.4228 19.6378L81.2332 17.353C81.6139 17.5618 82.0805 17.7522 82.6331 17.9242C83.198 18.0839 83.8857 18.1637 84.6961 18.1637Z" fill="#1A1243"/>
<path d="M97.9587 15.5841C97.9587 14.7365 97.7684 14.0608 97.3877 13.5572C97.007 13.0413 96.4422 12.7833 95.6931 12.7833C95.4475 12.7833 95.2203 12.7956 95.0116 12.8202C94.8028 12.8324 94.6309 12.8509 94.4958 12.8754V17.832C94.6677 17.9426 94.8888 18.0347 95.1589 18.1084C95.4414 18.1821 95.7238 18.219 96.0062 18.219C97.3079 18.219 97.9587 17.3407 97.9587 15.5841ZM100.758 15.5104C100.758 16.2597 100.666 16.9414 100.482 17.5556C100.298 18.1698 100.028 18.6981 99.6717 19.1403C99.3156 19.5825 98.8735 19.9264 98.3455 20.1721C97.8175 20.4178 97.2096 20.5406 96.522 20.5406C96.1413 20.5406 95.7852 20.5038 95.4536 20.4301C95.1221 20.3564 94.8028 20.252 94.4958 20.1168V23.7652H91.7513V10.996C91.9969 10.9223 92.2794 10.8547 92.5986 10.7933C92.9179 10.7196 93.2495 10.6582 93.5933 10.609C93.9494 10.5599 94.3055 10.5231 94.6616 10.4985C95.03 10.4616 95.38 10.4432 95.7115 10.4432C96.5097 10.4432 97.2219 10.5661 97.8482 10.8117C98.4744 11.0451 99.0025 11.3829 99.4322 11.8252C99.862 12.2551 100.187 12.7833 100.408 13.4098C100.642 14.0363 100.758 14.7365 100.758 15.5104Z" fill="#1A1243"/>
<path d="M102.868 20.3564V6.50005L105.612 6.05783V10.7012C105.796 10.6398 106.03 10.5845 106.312 10.5353C106.607 10.4739 106.889 10.4432 107.159 10.4432C107.945 10.4432 108.596 10.5538 109.112 10.7749C109.64 10.9837 110.057 11.2847 110.364 11.6778C110.684 12.0708 110.905 12.5376 111.028 13.0781C111.163 13.6186 111.23 14.2205 111.23 14.8839V20.3564H108.486V15.2155C108.486 14.3311 108.369 13.7046 108.136 13.3361C107.915 12.9676 107.497 12.7833 106.883 12.7833C106.638 12.7833 106.404 12.8079 106.183 12.857C105.975 12.8939 105.784 12.9369 105.612 12.986V20.3564H102.868Z" fill="#1A1243"/>
<path d="M113.254 15.5841C113.254 14.7242 113.383 13.9749 113.641 13.3361C113.911 12.685 114.261 12.1445 114.691 11.7146C115.12 11.2847 115.612 10.9591 116.164 10.738C116.729 10.5169 117.306 10.4064 117.896 10.4064C119.271 10.4064 120.358 10.8302 121.156 11.6778C121.954 12.5131 122.353 13.7476 122.353 15.3814C122.353 15.5411 122.347 15.7192 122.335 15.9157C122.322 16.1 122.31 16.2658 122.298 16.4132H116.072C116.133 16.9783 116.397 17.4267 116.864 17.7583C117.331 18.09 117.957 18.2558 118.743 18.2558C119.246 18.2558 119.738 18.2128 120.216 18.1268C120.708 18.0286 121.107 17.9119 121.414 17.7768L121.782 20.0063C121.635 20.08 121.438 20.1537 121.193 20.2274C120.947 20.3011 120.671 20.3625 120.364 20.4117C120.069 20.4731 119.75 20.5222 119.406 20.5591C119.062 20.5959 118.718 20.6144 118.375 20.6144C117.503 20.6144 116.741 20.4854 116.09 20.2274C115.452 19.9694 114.918 19.6193 114.488 19.1771C114.07 18.7226 113.757 18.1883 113.549 17.5741C113.352 16.9599 113.254 16.2965 113.254 15.5841ZM119.701 14.5338C119.688 14.3004 119.645 14.0731 119.572 13.852C119.51 13.6309 119.406 13.4344 119.259 13.2624C119.124 13.0904 118.945 12.9491 118.724 12.8386C118.516 12.728 118.252 12.6728 117.932 12.6728C117.625 12.6728 117.361 12.728 117.14 12.8386C116.919 12.9369 116.735 13.072 116.588 13.244C116.44 13.4159 116.324 13.6186 116.238 13.852C116.164 14.0731 116.109 14.3004 116.072 14.5338H119.701Z" fill="#1A1243"/>
<path d="M130.31 13.0966C130.064 13.0351 129.776 12.9737 129.444 12.9123C129.113 12.8386 128.757 12.8017 128.376 12.8017C128.204 12.8017 127.995 12.8202 127.75 12.857C127.516 12.8816 127.338 12.9123 127.216 12.9491V20.3564H124.471V11.1803C124.962 11.0083 125.539 10.8486 126.202 10.7012C126.878 10.5415 127.627 10.4616 128.45 10.4616C128.597 10.4616 128.775 10.4739 128.984 10.4985C129.193 10.5108 129.401 10.5353 129.61 10.5722C129.819 10.5968 130.028 10.6336 130.236 10.6828C130.445 10.7196 130.623 10.7687 130.771 10.8302L130.31 13.0966Z" fill="#1A1243"/>
<path d="M131.601 15.5841C131.601 14.7242 131.73 13.9749 131.988 13.3361C132.258 12.685 132.608 12.1445 133.038 11.7146C133.468 11.2847 133.959 10.9591 134.512 10.738C135.077 10.5169 135.654 10.4064 136.243 10.4064C137.618 10.4064 138.705 10.8302 139.503 11.6778C140.302 12.5131 140.701 13.7476 140.701 15.3814C140.701 15.5411 140.694 15.7192 140.682 15.9157C140.67 16.1 140.658 16.2658 140.645 16.4132H134.42C134.481 16.9783 134.745 17.4267 135.212 17.7583C135.678 18.09 136.305 18.2558 137.09 18.2558C137.594 18.2558 138.085 18.2128 138.564 18.1268C139.055 18.0286 139.454 17.9119 139.761 17.7768L140.13 20.0063C139.982 20.08 139.786 20.1537 139.54 20.2274C139.295 20.3011 139.018 20.3625 138.711 20.4117C138.417 20.4731 138.097 20.5222 137.753 20.5591C137.41 20.5959 137.066 20.6144 136.722 20.6144C135.85 20.6144 135.089 20.4854 134.438 20.2274C133.799 19.9694 133.265 19.6193 132.836 19.1771C132.418 18.7226 132.105 18.1883 131.896 17.5741C131.7 16.9599 131.601 16.2965 131.601 15.5841ZM138.048 14.5338C138.036 14.3004 137.993 14.0731 137.919 13.852C137.858 13.6309 137.754 13.4344 137.606 13.2624C137.471 13.0904 137.293 12.9491 137.072 12.8386C136.863 12.728 136.599 12.6728 136.28 12.6728C135.973 12.6728 135.709 12.728 135.488 12.8386C135.267 12.9369 135.083 13.072 134.935 13.244C134.788 13.4159 134.671 13.6186 134.585 13.852C134.512 14.0731 134.456 14.3004 134.42 14.5338H138.048Z" fill="#1A1243"/>
<path d="M145.6 18.3848C146.103 18.3848 146.459 18.3357 146.668 18.2374C146.877 18.1391 146.981 17.9487 146.981 17.6662C146.981 17.4451 146.846 17.2547 146.576 17.095C146.306 16.923 145.895 16.7326 145.342 16.5238C144.912 16.3641 144.519 16.1983 144.163 16.0263C143.819 15.8543 143.525 15.6516 143.279 15.4182C143.033 15.1725 142.843 14.8839 142.708 14.5522C142.573 14.2205 142.505 13.8213 142.505 13.3545C142.505 12.4455 142.843 11.7269 143.519 11.1987C144.194 10.6705 145.121 10.4064 146.3 10.4064C146.889 10.4064 147.454 10.4616 147.994 10.5722C148.535 10.6705 148.965 10.781 149.284 10.9039L148.805 13.0413C148.486 12.9307 148.136 12.8324 147.755 12.7465C147.387 12.6605 146.969 12.6175 146.502 12.6175C145.643 12.6175 145.213 12.857 145.213 13.3361C145.213 13.4466 145.232 13.5449 145.268 13.6309C145.305 13.7169 145.379 13.8029 145.489 13.8889C145.6 13.9626 145.747 14.0486 145.931 14.1468C146.128 14.2328 146.374 14.3311 146.668 14.4416C147.27 14.6628 147.767 14.8839 148.16 15.105C148.553 15.3138 148.86 15.5472 149.081 15.8052C149.314 16.0509 149.474 16.3272 149.56 16.6343C149.658 16.9414 149.707 17.2977 149.707 17.703C149.707 18.6612 149.345 19.386 148.621 19.8773C147.908 20.3687 146.895 20.6144 145.581 20.6144C144.722 20.6144 144.004 20.5406 143.426 20.3932C142.862 20.2458 142.469 20.123 142.248 20.0247L142.708 17.7952C143.175 17.9794 143.654 18.1268 144.145 18.2374C144.636 18.3357 145.121 18.3848 145.6 18.3848Z" fill="#1A1243"/>
<path fill-rule="evenodd" clip-rule="evenodd" d="M14.02 2.4668L2.88147 8.28895V20.0214L9.51982 24.7072L7.80058 27.6607L0.98319 22.8677C0.0608153 22.3153 -0.500061 21.3093 -0.500061 20.2283V8.08212C-0.500061 7.00105 0.0608092 5.99505 0.983193 5.44266L12.4931 -0.60191C13.4354 -1.16627 14.6045 -1.16627 15.5469 -0.60191L27.0568 5.44266C27.9791 5.99505 28.54 7.00105 28.54 8.08212V20.2283C28.54 21.3093 27.9792 22.3153 27.0568 22.8677L20.2394 27.6607L18.5201 24.7072L25.1585 20.0214V8.28895L14.02 2.4668Z" fill="#1A1243"/>
<path d="M5.05823 31.0252H9.64102C10.188 31.0252 10.681 30.711 10.9185 30.2266C10.9694 30.1227 11.0125 30.0149 11.0666 29.9127L13.2804 23.9431C13.52 23.364 14.3239 23.3651 14.5612 23.9451L16.809 29.8959C16.8675 30.0035 16.9138 30.1174 16.9684 30.227C17.2095 30.7102 17.7018 31.0252 18.2494 31.0252H22.9994C23.788 31.0252 24.3343 30.231 24.0585 29.4856L16.8084 9.8887C16.5754 9.387 16.0736 9.06802 15.5229 9.06802H12.5017C11.951 9.06802 11.4492 9.387 11.2162 9.8887L3.99858 29.4872C3.72416 30.2324 4.27038 31.0252 5.05823 31.0252Z" fill="#1A1243"/>
</svg>
