<svg width="109" height="30" viewBox="0 0 109 30" fill="none" xmlns="http://www.w3.org/2000/svg">
<path d="M72.2176 19.6965H69.9551V8.82537H68.6082V6.76904H69.9551V3.86573H72.2176V6.76817H74.5337V8.82624H72.2176V19.6965ZM77.9548 6.76817V8.13964C79.1124 6.79418 79.6785 6.47775 80.9171 6.47775C81.7253 6.47775 82.1029 6.58352 82.9375 7.00571L81.86 9.01089C81.3212 8.66759 81.0254 8.56183 80.5676 8.56183C78.7365 8.56183 77.9548 9.82839 77.9548 12.8895V19.6965H75.6923V6.76817H77.9548ZM95.1126 13.2848H95.0862V13.7599H84.8223C84.9297 16.3979 86.5733 18.1135 88.9978 18.1135C90.7479 18.1135 91.799 17.4269 93.0649 15.3957L94.9771 16.4508C94.3573 17.5327 94.0351 17.9549 93.3607 18.5089C92.2031 19.5379 90.6141 20.0658 88.9168 20.0658C85.0917 20.0658 82.4251 17.322 82.4251 13.3377C82.4251 9.27443 85.038 6.50376 88.8085 6.50376C92.6072 6.50376 95.1126 9.19554 95.1126 13.2848ZM84.9852 11.8613H92.7427C92.3378 9.80325 90.8034 8.4838 88.864 8.4838C86.9246 8.4838 85.3074 9.90902 84.9852 11.8613ZM67.9074 13.2857H67.881V13.7607H57.618C57.7254 16.3988 59.369 18.1144 61.7934 18.1144C63.5435 18.1144 64.5947 17.4278 65.8606 15.3966L67.7727 16.4517C67.1529 17.5336 66.8307 17.9558 66.1564 18.5097C64.9987 19.5388 63.4097 20.0667 61.7124 20.0667C57.8873 20.0667 55.2208 17.3229 55.2208 13.3385C55.2208 9.2753 57.8063 6.50463 61.6041 6.50463C65.4028 6.50463 67.9074 9.19641 67.9074 13.2857ZM57.7526 11.8613H65.5102C65.1062 9.80325 63.5708 8.4838 61.6314 8.4838C59.692 8.4838 58.0757 9.90902 57.7526 11.8613ZM107.853 6.76904L97.376 19.6965H94.5747L105.026 6.76817H107.854L107.853 6.76904ZM101.335 10.8323L99.9616 12.4942L95.382 6.76904H98.1296L101.335 10.8323ZM103.193 13.0481L108.5 19.7234H105.806L101.82 14.7369L103.193 13.0481ZM51.2619 7.0846H53.5508V19.6965H51.3957V18.0338C51.3957 18.0338 50.3182 18.931 49.6174 19.3003C48.8911 19.6697 48.0293 20.039 46.7088 20.039C43.0184 20.039 40.3527 17.1903 40.3527 13.2319C40.3527 9.32732 42.9919 6.50463 46.6559 6.50463C48.5672 6.50463 49.9687 7.11147 51.261 8.61471L51.2619 7.0846ZM46.9781 18.2453C49.51 18.2453 51.5577 16.0026 51.5841 13.2848C51.5841 10.541 49.51 8.32429 46.9781 8.32429C44.4199 8.32429 42.3722 10.541 42.3722 13.2848C42.3722 16.0286 44.4463 18.2453 46.9781 18.2453ZM21.1207 12.8895C21.1471 15.9757 6.60122 23.4165 4.55442 24.4455C7.24827 22.0181 14.0621 15.1053 14.0357 13.3637C14.0093 12.0182 11.289 9.93416 6.30543 5.52761C9.86113 6.2931 21.0661 10.7785 21.1198 12.8895" fill="#1A1243"/>
<path d="M17.5905 19.1426C8.70348 13.2311 2.96629 6.31911 4.39332 4.28792C5.79395 2.25586 14.468 4.94678 23.3559 10.8574C32.2456 16.7681 37.9828 23.654 36.5822 25.6861C35.1543 27.7433 26.4811 25.0532 17.5923 19.1426H17.5905ZM39.6783 21.8595C39.0595 20.514 38.0083 19.0108 36.6077 17.4009C33.8337 14.2349 29.874 10.8574 25.4027 7.87609C20.9587 4.92077 16.2718 2.52027 12.2583 1.17481C10.2106 0.487346 8.40592 0.092898 6.89702 0.0131415C3.71986 -0.144638 2.13084 1.14881 1.34998 2.25586C0.568234 3.36552 -0.0515276 5.29008 1.26811 8.13964C1.88787 9.48596 2.93812 10.9892 4.33874 12.5991C7.11358 15.7651 11.0734 19.1426 15.5446 22.1239C19.9886 25.0792 24.6755 27.4797 28.6881 28.8252C30.7631 29.5118 32.5678 29.9071 34.0494 29.9869C37.2275 30.1446 38.8165 28.8512 39.5982 27.7433C40.3791 26.6353 41.0253 24.7091 39.6783 21.8595Z" fill="#1A1243"/>
<path d="M19.8266 17.0845C19.7738 13.9974 34.3188 6.55578 36.3929 5.52848C33.699 7.95585 26.8843 14.8678 26.9116 16.6094C26.938 17.9549 29.6583 20.039 34.641 24.4464C31.0862 23.7069 19.8539 19.1955 19.8266 17.0845Z" fill="#1A1243"/>
</svg>
