<svg width="137" height="20" viewBox="0 0 137 20" fill="none" xmlns="http://www.w3.org/2000/svg">
<path d="M70.3329 5.43664V18.7664H67.1678V6.01454C67.1678 5.6773 67.0322 5.35387 66.7905 5.11541C66.5488 4.87694 66.2206 4.74297 65.8789 4.74297H52.9568V1.62096H66.4695C67.4946 1.62222 68.4772 2.02478 69.2016 2.74023C69.9261 3.45567 70.3329 4.42548 70.3329 5.43664ZM75.0694 11.7528H92.4428V8.62981H75.0694V11.7528ZM75.0694 18.7616H92.4428V15.6396H75.0694V18.7616ZM75.0694 4.74297H92.4428V1.62096H75.0694V4.74297ZM52.445 12.4085L47.3927 3.38409C47.0127 2.72712 46.4625 2.18171 45.7983 1.80382C45.1341 1.42594 44.3799 1.2292 43.6131 1.2338C42.8464 1.22937 42.0922 1.42639 41.4281 1.80462C40.764 2.18286 40.214 2.72867 39.8345 3.38599L31.2249 18.7588H34.7938L42.5464 4.91378C42.656 4.73084 42.8121 4.57924 42.9992 4.47393C43.1865 4.36863 43.3982 4.31324 43.6137 4.31324C43.8291 4.31324 44.0408 4.36863 44.228 4.47393C44.4152 4.57924 44.5713 4.73084 44.6809 4.91378L49.661 13.8081C49.7698 13.9941 49.827 14.2049 49.8269 14.4196C49.8268 14.6342 49.7696 14.845 49.6608 15.0309C49.552 15.2167 49.3955 15.3711 49.2072 15.4785C49.0188 15.5858 48.805 15.6424 48.5875 15.6424H38.7129V18.7284H48.5855C49.3382 18.7288 50.0782 18.537 50.7336 18.1718C51.389 17.8066 51.9375 17.2804 52.3257 16.6443C52.7139 16.0082 52.9288 15.2839 52.9493 14.5417C52.9699 13.7994 52.7955 13.0645 52.4431 12.4085H52.445ZM97.1832 5.43475V18.7664H100.348V6.01454C100.348 5.84748 100.382 5.68205 100.447 5.52771C100.511 5.37338 100.606 5.23316 100.726 5.11507C100.845 4.99698 100.988 4.90334 101.144 4.83949C101.301 4.77564 101.468 4.74285 101.638 4.74297H114.561V1.62096H101.051C100.025 1.62096 99.0415 2.02297 98.3164 2.73855C97.5906 3.45413 97.1832 4.42466 97.1832 5.43664V5.43475ZM123.904 4.31405C124.12 4.31196 124.332 4.36647 124.52 4.47201C124.708 4.57755 124.863 4.73032 124.972 4.91473L132.723 18.7664H136.292L127.683 3.39358C127.303 2.73619 126.753 2.19034 126.089 1.8121C125.425 1.43387 124.671 1.23689 123.904 1.24139C123.137 1.23689 122.382 1.43387 121.718 1.8121C121.054 2.19034 120.504 2.73619 120.124 3.39358L115.071 12.4085C114.72 13.0645 114.546 13.7992 114.567 14.5409C114.588 15.2827 114.803 16.0065 115.191 16.6421C115.58 17.2777 116.128 17.8036 116.783 18.1687C117.437 18.5337 118.177 18.7255 118.93 18.7255H128.805V15.6462H118.932C118.713 15.6463 118.5 15.5899 118.311 15.4826C118.123 15.3753 117.966 15.2209 117.857 15.0351C117.749 14.8492 117.691 14.6383 117.691 14.4236C117.691 14.2089 117.748 13.9979 117.857 13.8119L122.841 4.91662C122.948 4.73279 123.103 4.58036 123.29 4.47484C123.477 4.36933 123.688 4.31451 123.904 4.31595V4.31405ZM21.839 12.38C22.2914 13.1522 22.5297 14.0283 22.5299 14.9201C22.5301 15.812 22.2922 16.6882 21.8401 17.4606C21.3881 18.233 20.7379 18.8743 19.9548 19.3201C19.1717 19.7659 18.2835 20.0003 17.3793 20H5.85785C4.95382 20.0002 4.06568 19.7656 3.28274 19.3197C2.4998 18.8738 1.84968 18.2325 1.39775 17.4602C0.945812 16.6878 0.70801 15.8117 0.708252 14.9199C0.708495 14.0281 0.946774 13.1521 1.39912 12.38L7.16035 2.53954C7.6121 1.76744 8.26189 1.12627 9.04452 0.680478C9.82708 0.234691 10.7149 0 11.6186 0C12.5223 0 13.4101 0.234691 14.1927 0.680478C14.9753 1.12627 15.6251 1.76744 16.0769 2.53954L21.839 12.38ZM6.79769 5.96995L8.55907 8.9847C8.66342 9.16283 8.81349 9.31073 8.99414 9.41354C9.17487 9.51627 9.37976 9.57036 9.58839 9.57023H13.7037C13.9122 9.57023 14.1171 9.51614 14.2978 9.41341C14.4784 9.3106 14.6285 9.16276 14.7329 8.9847L16.4895 5.98134L14.6618 2.85648L12.3338 6.83348C12.2643 6.95254 12.1642 7.05141 12.0436 7.12012C11.923 7.18889 11.7862 7.22508 11.6469 7.22508C11.5077 7.22508 11.3709 7.18889 11.2503 7.12012C11.1297 7.05141 11.0296 6.95254 10.9602 6.83348L8.62444 2.84794L6.79769 5.96995ZM10.9015 14.4535L8.84761 10.9377C8.74353 10.7594 8.59372 10.6114 8.4132 10.5084C8.23267 10.4055 8.02784 10.3512 7.81928 10.3512H4.28503L2.45729 13.477H7.12764C7.26683 13.4771 7.40353 13.5134 7.52406 13.5821C7.64459 13.6508 7.74467 13.7496 7.81424 13.8685C7.88387 13.9875 7.92048 14.1223 7.92055 14.2596C7.92055 14.397 7.884 14.5319 7.8145 14.6508L5.48652 18.6278H9.14198L10.8995 15.6254C11.0038 15.4473 11.0589 15.2453 11.0592 15.0397C11.0595 14.834 11.0052 14.6319 10.9015 14.4535ZM16.1586 13.477H20.828L19.0003 10.3512H15.4689C15.2604 10.3512 15.0555 10.4055 14.875 10.5084C14.6945 10.6114 14.5446 10.7594 14.4405 10.9377L12.3829 14.4535C12.2784 14.6315 12.2234 14.8337 12.2234 15.0394C12.2234 15.2452 12.2784 15.4473 12.3829 15.6254L14.1385 18.6278H17.7939L15.466 14.6508C15.3962 14.5314 15.3597 14.396 15.3599 14.2582C15.3602 14.1204 15.3974 13.9851 15.4677 13.866C15.5379 13.7469 15.6388 13.6482 15.7601 13.5799C15.8815 13.5116 16.0189 13.4761 16.1586 13.477Z" fill="#1A1243"/>
</svg>
