<svg width="103" height="30" viewBox="0 0 103 30" fill="none" xmlns="http://www.w3.org/2000/svg">
<path fill-rule="evenodd" clip-rule="evenodd" d="M13.0916 10.4259C10.5613 11.4958 9.3813 14.4225 10.4535 16.9416C11.5258 19.4664 14.4588 20.6439 16.9833 19.574C19.5136 18.504 20.6936 15.5773 19.6214 13.0582C18.5491 10.5334 15.6161 9.35596 13.0916 10.4259ZM14.0673 12.7186C15.3268 12.1864 16.7848 12.7752 17.3237 14.0319C17.857 15.2886 17.267 16.7435 16.0076 17.2813C14.7481 17.8134 13.2901 17.2247 12.7512 15.9679C12.2179 14.7112 12.8079 13.2564 14.0673 12.7186Z" fill="#1A1243"/>
<path d="M8.26389 12.4361L8.25254 12.4304L5.86414 11.4454C6.80021 9.0282 8.6837 6.99026 11.265 5.92034C16.2858 3.84278 22.0554 6.23169 24.1374 11.236C24.162 11.2891 24.1806 11.3392 24.1998 11.3907C24.2072 11.4105 24.2146 11.4306 24.2225 11.4511L21.8171 12.4417C21.7944 12.3682 21.766 12.2946 21.7377 12.2266C20.2059 8.54136 15.9567 6.78647 12.2635 8.31492C10.3403 9.10745 8.95034 10.6359 8.26389 12.4361Z" fill="#1A1243"/>
<path d="M21.8054 17.5645C21.119 19.3646 19.7291 20.8874 17.8059 21.68C14.1126 23.2084 9.86341 21.4535 8.33166 17.7682C8.31748 17.7343 8.30473 17.7004 8.29197 17.6664C8.27921 17.6324 8.26642 17.5984 8.25223 17.5645L5.85248 18.5664C5.86439 18.5949 5.87529 18.6235 5.88603 18.6515C5.90089 18.6904 5.91545 18.7285 5.93191 18.7646C8.01396 23.7689 13.7836 26.1578 18.8043 24.0802C21.3856 23.0103 23.2691 20.9667 24.2109 18.5551L21.8054 17.5645Z" fill="#1A1243"/>
<path fill-rule="evenodd" clip-rule="evenodd" d="M9.1601 1.1934C1.52969 4.4258 -2.04441 13.2456 1.19497 20.8595C4.43435 28.4735 13.2788 32.0399 20.9092 28.8075C28.5397 25.5751 32.1138 16.7497 28.8744 9.13571C25.635 1.52174 16.7905 -2.03899 9.1601 1.1934ZM10.221 3.68422C16.4728 1.0349 23.7231 3.95594 26.3725 10.1943C29.0276 16.4327 26.1002 23.6673 19.8484 26.311C13.5965 28.9603 6.34621 26.0393 3.69684 19.8009C1.04179 13.5626 3.96915 6.33354 10.221 3.68422Z" fill="#1A1243"/>
<path d="M45.2074 16.7269C44.538 17.559 43.67 17.9779 42.6148 17.9779C41.8432 17.9779 41.1851 17.7062 40.6405 17.1684C40.0959 16.625 39.8236 15.906 39.8236 15.0116C39.8236 14.1172 40.1129 13.4039 40.6859 12.8774C41.2589 12.351 41.951 12.0849 42.7623 12.0849C43.7721 12.0849 44.6174 12.5095 45.2982 13.353L46.637 11.8415C45.5705 10.6357 44.2486 10.0356 42.6658 10.0356C41.2532 10.0356 40.0562 10.5112 39.0747 11.4679C38.0932 12.4246 37.6054 13.6134 37.6054 15.0399C37.6054 16.4665 38.0876 17.6496 39.0463 18.5837C40.0108 19.5177 41.2305 19.9876 42.7169 19.9876C44.2033 19.9876 45.4911 19.3705 46.586 18.1421L45.2074 16.7269Z" fill="#1A1243"/>
<path fill-rule="evenodd" clip-rule="evenodd" d="M54.8121 19.88L53.9157 17.8024H49.8707L48.9744 19.88H46.6824L50.8465 10.2563H52.9286L57.0927 19.88H54.8121ZM51.9017 13.1208L50.6877 15.9173H53.1045L51.9017 13.1208Z" fill="#1A1243"/>
<path fill-rule="evenodd" clip-rule="evenodd" d="M63.9341 16.4381C65.1538 15.9852 65.7665 14.9889 65.7665 13.4491C65.7665 12.3283 65.4488 11.5187 64.8021 11.0149C64.1667 10.5111 63.0945 10.2563 61.5968 10.2563H57.9432V19.88H60.0934V16.8117H61.5854L63.7242 19.88H66.3736L63.9341 16.4381ZM63.5767 13.4548C63.5767 13.9756 63.4405 14.3549 63.1739 14.5926C62.9073 14.8304 62.4024 14.9493 61.6705 14.9493H60.099V12.1018H61.7159C62.4024 12.1018 62.8846 12.1981 63.1626 12.3905C63.4405 12.583 63.5767 12.934 63.5767 13.4548Z" fill="#1A1243"/>
<path fill-rule="evenodd" clip-rule="evenodd" d="M71.9219 19.88H67.701V10.2563H71.451C72.1034 10.2563 72.6651 10.3356 73.1416 10.4884C73.6125 10.647 73.9699 10.8564 74.2082 11.1225C74.6393 11.6206 74.8549 12.1754 74.8549 12.8038C74.8549 13.5567 74.611 14.1171 74.1231 14.4851C73.9586 14.6153 73.8451 14.6945 73.777 14.7285C73.7292 14.7545 73.6482 14.7905 73.5389 14.839L73.431 14.887C74.0266 15.0172 74.5032 15.2833 74.8606 15.6909C75.2123 16.0984 75.3939 16.6079 75.3939 17.2136C75.3939 17.8816 75.1613 18.476 74.7017 18.9912C74.1741 19.5799 73.2437 19.88 71.9219 19.88ZM69.8569 14.1511H70.8724C71.468 14.1511 71.9162 14.0888 72.2056 13.9586C72.4949 13.8284 72.6424 13.551 72.6424 13.1264C72.6424 12.7019 72.5062 12.4188 72.2396 12.2773C71.9729 12.1414 71.5248 12.0735 70.8894 12.0735H69.8569V14.1511ZM71.3262 18.0628C71.9446 18.0628 72.4041 17.9892 72.7105 17.8364C73.0168 17.6835 73.17 17.3891 73.17 16.9419C73.17 16.4947 73.0055 16.206 72.6821 16.0588C72.3531 15.9173 71.8311 15.8437 71.1163 15.8437H69.8455V18.0628H71.3262Z" fill="#1A1243"/>
<path d="M78.6511 16.0815V19.88H80.8069V16.0815L84.1428 10.2563H81.8111L79.729 13.8341L77.647 10.2563H75.3153L78.6511 16.0815Z" fill="#1A1243"/>
<path d="M91.6476 10.2563H93.7978V19.88H91.6476L87.0524 13.851V19.88H84.9022V10.2563H86.9162L91.6476 16.4494V10.2563Z" fill="#1A1243"/>
<path d="M102.853 12.1697V10.2563H95.8973V19.88H103V17.9779H98.0475V15.9852H102.37V14.1511H98.0475V12.1697H102.853Z" fill="#1A1243"/>
</svg>
