<svg width="129" height="26" viewBox="0 0 129 26" fill="none" xmlns="http://www.w3.org/2000/svg">
<path opacity="0.9" fill-rule="evenodd" clip-rule="evenodd" d="M103.423 6.38141C104.958 6.38141 106.087 6.79761 106.839 7.4258C107.145 7.68173 107.62 7.47492 107.62 7.08586C107.62 6.8351 107.831 6.63346 108.091 6.63346H110.411C110.671 6.63346 110.883 6.8351 110.883 7.08586V18.9749C110.883 22.6135 108.931 26 103.597 26C100.038 26 97.497 23.9914 96.9168 21.4489C96.8648 21.2162 96.9311 20.9189 97.2473 20.9163H99.8102C99.9975 20.9176 100.171 21.0585 100.255 21.2395C100.255 21.2421 100.258 21.2421 100.259 21.2433C100.805 22.3937 101.976 23.1732 103.511 23.1732C106.192 23.1732 107.532 21.8573 107.532 19.0873V18.9116C107.532 18.5186 107.054 18.3209 106.743 18.5755C105.983 19.2037 104.857 19.647 103.423 19.647C99.6359 19.647 96.8674 16.8486 96.8674 13.0136C96.8674 9.37629 99.5201 6.38141 103.424 6.38141H103.423ZM115.648 6.63346C115.799 6.63346 115.935 6.71747 115.998 6.84932L119.615 14.491C119.752 14.7831 120.185 14.7779 120.316 14.4832L123.692 6.85707C123.723 6.78991 123.773 6.73304 123.835 6.69335C123.898 6.65366 123.971 6.63286 124.045 6.63346H126.781C127.061 6.63346 127.245 6.90877 127.131 7.15307L118.445 25.5592C118.414 25.6246 118.364 25.6797 118.302 25.7181C118.24 25.7565 118.169 25.7767 118.096 25.7764H115.327C115.049 25.7764 114.863 25.4985 114.98 25.2542L118.063 18.7978C118.087 18.7487 118.099 18.6949 118.098 18.6405C118.098 18.586 118.085 18.5324 118.06 18.4837L112.345 7.16083C112.222 6.91653 112.408 6.63346 112.69 6.63346H115.648ZM62.6098 14.2286C62.883 14.2286 63.0691 14.4315 63.1081 14.5621C63.6077 16.2579 65.2287 17.5001 67.1542 17.5001C69.0796 17.5001 70.7007 16.2579 71.2002 14.5621C71.2393 14.4315 71.3694 14.2286 71.7467 14.2286H73.7658L73.836 14.2363C73.9437 14.2466 74.048 14.2797 74.1418 14.3332C74.2356 14.3868 74.3168 14.4596 74.38 14.5469C74.4431 14.6341 74.4868 14.7338 74.5081 14.8392C74.5294 14.9445 74.5278 15.0532 74.5034 15.1579C73.7072 18.348 70.7202 20.7199 67.1542 20.7199C63.5895 20.7199 60.6011 18.348 59.8036 15.1579C59.7794 15.0531 59.778 14.9444 59.7995 14.839C59.8209 14.7337 59.8648 14.634 59.9281 14.5468C59.9914 14.4596 60.0726 14.3868 60.1665 14.3332C60.2603 14.2797 60.3646 14.2467 60.4723 14.2363L60.5426 14.2286H62.6098ZM83.8185 14.2286C83.9254 14.2283 84.03 14.2599 84.1186 14.3194C84.2072 14.3788 84.2758 14.4634 84.3155 14.5621C84.8163 16.2579 86.4361 17.5001 88.3615 17.5001C90.287 17.5001 91.9093 16.2579 92.4089 14.5621C92.4479 14.4315 92.578 14.2286 92.9553 14.2286H94.9744L95.0447 14.2363C95.1523 14.2468 95.2564 14.28 95.3501 14.3336C95.4438 14.3872 95.5249 14.4601 95.5881 14.5473C95.6512 14.6345 95.6949 14.734 95.7163 14.8393C95.7377 14.9446 95.7363 15.0532 95.7121 15.1579C94.9159 18.348 91.9288 20.7199 88.3615 20.7199C84.7968 20.7199 81.8098 18.348 81.0123 15.1579C80.9881 15.0531 80.9867 14.9444 81.0081 14.839C81.0296 14.7337 81.0734 14.634 81.1367 14.5468C81.2 14.4596 81.2813 14.3868 81.3751 14.3332C81.469 14.2797 81.5732 14.2467 81.681 14.2363L81.7512 14.2286H83.8185ZM51.2952 6.21337C55.6665 6.21337 58.2294 8.98464 58.2294 13.2941C58.2294 13.5022 58.2203 13.6986 58.2086 13.8628C58.1968 13.9913 58.1367 14.1108 58.0403 14.1972C57.9438 14.2837 57.8181 14.3309 57.6882 14.3294H48.3536C48.2779 14.3279 48.2028 14.3432 48.1337 14.3742C48.0647 14.4052 48.0035 14.4511 47.9545 14.5085C47.9055 14.566 47.8701 14.6335 47.8507 14.7063C47.8313 14.779 47.8284 14.8552 47.8424 14.9292C48.1975 16.6819 49.7548 17.884 51.6451 17.884C53.4639 17.884 54.4943 17.0593 55.0277 15.9283C55.0815 15.8128 55.1756 15.7207 55.2926 15.6689C55.4096 15.6171 55.5415 15.6091 55.6639 15.6465L57.5399 16.2153C57.8261 16.3032 57.9822 16.6069 57.869 16.8745C56.9714 19.0175 54.8091 20.6824 51.6451 20.6824C47.7981 20.6824 44.3895 17.9951 44.3895 13.3781C44.3895 9.06736 47.711 6.21337 51.2952 6.21337ZM11.2027 0C16.0996 0 19.1413 2.58514 20.2836 5.75322C20.3137 5.84355 20.3253 5.93898 20.3176 6.03383C20.3099 6.12868 20.2831 6.22104 20.2388 6.30542C20.1945 6.3898 20.1336 6.46448 20.0598 6.52505C19.9859 6.58562 19.9005 6.63083 19.8087 6.65802L17.9353 7.26552C17.7529 7.3264 17.5539 7.31559 17.3792 7.23531C17.2045 7.15503 17.0674 7.01136 16.996 6.83381C16.2154 4.74631 14.342 3.16291 11.2027 3.16291C7.79414 3.16291 4.38426 5.54124 4.38426 10.3548C4.38426 15.0015 7.70568 17.4639 11.2313 17.4639C14.3654 17.4639 16.2857 15.7267 17.1417 13.7387C17.216 13.5658 17.3525 13.4267 17.5245 13.3486C17.6965 13.2704 17.8917 13.2588 18.0719 13.316L19.8829 13.8848C19.9758 13.9116 20.0623 13.9569 20.1371 14.0178C20.2119 14.0788 20.2735 14.1542 20.3181 14.2395C20.3628 14.3249 20.3895 14.4183 20.3968 14.5141C20.404 14.61 20.3916 14.7063 20.3604 14.7973C19.2077 17.893 16.1413 20.6824 11.2313 20.6824C5.66573 20.6824 0.800049 16.8202 0.800049 10.3548C0.800049 3.89063 5.84136 0.00129257 11.2027 0.00129257V0ZM27.7916 6.21337C32.1629 6.21337 33.8229 8.5917 33.8229 11.3061V18.0791C33.8229 18.759 33.8672 19.311 33.9127 19.6923C33.9197 19.7655 33.911 19.8393 33.8873 19.9089C33.8635 19.9785 33.8251 20.0424 33.7747 20.0962C33.7244 20.15 33.6631 20.1927 33.5949 20.2213C33.5268 20.2499 33.4533 20.2639 33.3793 20.2623H31.3042C31.1751 20.265 31.0494 20.2204 30.9513 20.137C30.8532 20.0535 30.7894 19.9371 30.7721 19.8099L30.7708 19.7944C30.7214 19.373 30.1984 19.1959 29.8693 19.4777C29.0835 20.1498 27.9243 20.6824 26.3358 20.6824C23.363 20.6824 21.5273 18.7241 21.5273 16.5681C21.5273 14.1329 23.3916 12.79 25.8102 12.4539L29.4529 11.9226C30.2687 11.8102 30.5015 11.4185 30.5015 10.9429C30.5015 9.79508 29.6858 8.87218 27.8215 8.87218C26.2577 8.87218 25.3028 9.71752 24.9971 10.855C24.9582 10.9842 24.871 11.0937 24.7534 11.161C24.6358 11.2283 24.4968 11.2483 24.3648 11.2169L22.5057 10.8123C22.0282 10.7089 21.8409 10.4375 21.9046 10.1622C22.4055 8.02168 24.5456 6.21337 27.7916 6.21337ZM43.1445 6.46542C43.2837 6.46542 43.4164 6.47189 43.5361 6.48093C43.6733 6.48937 43.8022 6.54887 43.8973 6.64757C43.9923 6.74627 44.0463 6.87692 44.0487 7.01347V9.25478C44.0475 9.32895 44.031 9.40209 44.0002 9.46965C43.9693 9.5372 43.9248 9.59772 43.8694 9.64744C43.814 9.69715 43.7489 9.735 43.6781 9.75863C43.6073 9.78225 43.5324 9.79114 43.458 9.78474C43.2862 9.77246 43.1139 9.76642 42.9415 9.76664C40.3188 9.76664 39.1245 11.2208 39.1245 13.7684V19.7272C39.1217 19.8713 39.0616 20.0084 38.9572 20.1085C38.8528 20.2086 38.7127 20.2634 38.5676 20.261H36.3C36.2283 20.2622 36.157 20.2493 36.0902 20.2232C36.0235 20.197 35.9625 20.158 35.911 20.1084C35.8594 20.0588 35.8181 19.9997 35.7896 19.9342C35.761 19.8688 35.7457 19.7985 35.7445 19.7272V7.16729C35.7457 7.09599 35.761 7.02563 35.7896 6.96021C35.8181 6.8948 35.8594 6.83562 35.911 6.78604C35.9625 6.73647 36.0235 6.69748 36.0902 6.6713C36.157 6.64512 36.2283 6.63226 36.3 6.63346H38.4805C38.5522 6.63226 38.6235 6.64512 38.6903 6.6713C38.757 6.69748 38.8179 6.73647 38.8695 6.78604C38.9211 6.83562 38.9624 6.8948 38.9909 6.96021C39.0195 7.02563 39.0348 7.09599 39.036 7.16729C39.036 7.64037 39.6162 7.86915 39.9805 7.55118C40.7832 6.85319 41.8995 6.46542 43.1445 6.46542ZM78.4897 0C78.8604 0 79.161 0.288243 79.161 0.644991V19.6173C79.161 19.974 78.8617 20.2636 78.4897 20.2636H76.4523C76.3655 20.265 76.2793 20.2493 76.1986 20.2176C76.1179 20.1858 76.0443 20.1386 75.9819 20.0786C75.9196 20.0186 75.8697 19.947 75.8353 19.8678C75.8008 19.7887 75.7824 19.7035 75.781 19.6173V0.646284C75.781 0.289535 76.0815 0.00129257 76.4523 0.00129257H78.4897V0ZM29.8849 14.0825L26.8015 14.5259C25.7529 14.6939 24.9073 15.2523 24.9073 16.373C24.9073 17.2958 25.6358 18.136 26.9759 18.136C28.8701 18.136 30.5015 17.2687 30.5015 14.6099V14.5918C30.5001 14.5163 30.4824 14.442 30.4495 14.374C30.4166 14.3059 30.3694 14.2457 30.311 14.1974C30.2526 14.1491 30.1845 14.1138 30.1112 14.094C30.0379 14.0742 29.9611 14.0703 29.8862 14.0825H29.8849ZM103.977 9.17982C101.822 9.17982 100.276 10.6921 100.276 13.0136C100.276 15.3919 101.763 16.8758 103.977 16.8758C106.133 16.8758 107.62 15.3648 107.62 13.0136C107.62 10.6908 106.074 9.17982 103.977 9.17982ZM88.3615 6.15521C91.9262 6.15521 94.9146 8.52707 95.7121 11.7171C95.7361 11.8218 95.7373 11.9304 95.7157 12.0357C95.6942 12.1409 95.6503 12.2403 95.587 12.3274C95.5238 12.4145 95.4426 12.4872 95.3488 12.5406C95.2551 12.5941 95.151 12.6271 95.0434 12.6374L94.9731 12.6465H92.9046C92.7977 12.6466 92.6932 12.6149 92.6046 12.5555C92.516 12.496 92.4474 12.4116 92.4076 12.313C91.908 10.6172 90.287 9.37499 88.3615 9.37499C86.4361 9.37499 84.815 10.6159 84.3155 12.313C84.2764 12.4435 84.1463 12.6465 83.7691 12.6465H81.7499L81.6797 12.6374C81.572 12.6273 81.4678 12.5944 81.3739 12.541C81.2801 12.4876 81.1988 12.4149 81.1355 12.3278C81.0722 12.2407 81.0283 12.1411 81.0068 12.0358C80.9854 11.9305 80.9868 11.8219 81.011 11.7171C81.8085 8.52707 84.7968 6.15521 88.3615 6.15521ZM67.1529 6.15521C70.7176 6.15521 73.7059 8.52707 74.5034 11.7171C74.5274 11.8218 74.5286 11.9304 74.5071 12.0357C74.4855 12.1409 74.4417 12.2403 74.3784 12.3274C74.3151 12.4145 74.2339 12.4872 74.1402 12.5406C74.0464 12.5941 73.9423 12.6271 73.8347 12.6374L73.7645 12.6465H71.6959C71.589 12.6466 71.4845 12.6149 71.3959 12.5555C71.3074 12.496 71.2387 12.4116 71.1989 12.313C70.6994 10.6172 69.0783 9.37499 67.1529 9.37499C65.2274 9.37499 63.6064 10.6159 63.1068 12.313C63.0678 12.4435 62.9377 12.6465 62.5604 12.6465H60.5413L60.471 12.6374C60.3634 12.6273 60.2592 12.5944 60.1654 12.541C60.0716 12.4876 59.9903 12.4149 59.9271 12.3277C59.8639 12.2406 59.8202 12.141 59.7989 12.0357C59.7776 11.9304 59.7792 11.8218 59.8036 11.7171C60.5998 8.52707 63.5869 6.15521 67.1542 6.15521H67.1529ZM51.3238 8.92777C49.5011 8.92777 48.3406 10.0794 47.9738 11.3255C47.8814 11.6396 48.139 11.9511 48.4785 11.9511H54.2341C54.3101 11.9528 54.3855 11.9376 54.4548 11.9066C54.5241 11.8757 54.5856 11.8297 54.6347 11.7721C54.6839 11.7145 54.7194 11.6467 54.7388 11.5736C54.7582 11.5006 54.7609 11.4242 54.7467 11.35C54.4605 10.0148 53.3572 8.92777 51.3251 8.92777H51.3238ZM127.498 0.210689C127.838 0.207896 128.167 0.335675 128.415 0.567437C128.532 0.678598 128.626 0.809147 128.696 0.960378C128.765 1.11161 128.8 1.27447 128.8 1.45026C128.8 1.63122 128.765 1.79667 128.696 1.9479C128.561 2.25029 128.311 2.48733 128.001 2.60711C127.845 2.66915 127.676 2.70017 127.498 2.70017C127.321 2.70017 127.152 2.66915 126.994 2.60711C126.683 2.4875 126.431 2.25062 126.294 1.9479C126.224 1.79135 126.189 1.62163 126.19 1.45026C126.19 1.27447 126.225 1.11161 126.294 0.960378C126.362 0.812297 126.458 0.678791 126.577 0.567437C126.827 0.336454 127.156 0.208881 127.498 0.210689ZM127.498 0.394233C127.288 0.39165 127.081 0.451059 126.905 0.564947C126.729 0.678834 126.591 0.842085 126.508 1.03405C126.453 1.16591 126.425 1.30746 126.426 1.45026C126.421 1.6605 126.481 1.86722 126.596 2.04356C126.711 2.2199 126.877 2.3577 127.072 2.43908C127.204 2.49336 127.346 2.52051 127.498 2.52051C127.638 2.52159 127.778 2.49508 127.908 2.44251C128.038 2.38994 128.156 2.31234 128.256 2.21417C128.357 2.11383 128.436 1.9943 128.489 1.86279C128.541 1.73127 128.567 1.5905 128.563 1.44897C128.564 1.30986 128.538 1.17189 128.485 1.043C128.433 0.914118 128.355 0.796861 128.256 0.697987C128.053 0.501857 127.781 0.392774 127.498 0.394233ZM127.578 0.726423C127.759 0.726423 127.892 0.761322 127.979 0.829829C128.066 0.899627 128.109 1.00433 128.109 1.14392C128.109 1.27447 128.07 1.37141 127.995 1.43217C127.912 1.49515 127.813 1.53289 127.71 1.54074L128.144 2.18315H127.891L127.478 1.55754H127.228V2.18315H126.992V0.726423H127.578ZM127.539 0.909968H127.227V1.374H127.474C127.526 1.374 127.578 1.37271 127.625 1.36883C127.669 1.36607 127.711 1.35647 127.751 1.34039C127.787 1.32609 127.818 1.30131 127.84 1.2693C127.865 1.22842 127.876 1.18116 127.874 1.13358C127.876 1.0927 127.865 1.05217 127.844 1.01725C127.824 0.988701 127.798 0.965561 127.767 0.950037C127.734 0.933786 127.697 0.923297 127.66 0.919016C127.621 0.913529 127.581 0.910507 127.541 0.909968H127.539Z" fill="#1A1243"/>
</svg>
