<svg width="71" height="24" viewBox="0 0 71 24" fill="none" xmlns="http://www.w3.org/2000/svg">
<path d="M37.5499 13.0413C37.3117 10.8311 35.4781 9.19835 33.102 9.19835C30.7926 9.19835 28.8916 11.1365 28.6541 13.0413H37.5499ZM40.0308 19.6858C40.1287 19.7519 40.1945 19.8561 40.2123 19.9731C40.23 20.09 40.1981 20.2091 40.1242 20.3014C38.6095 22.2155 36.4683 23.4425 33.3736 23.4425C28.3144 23.4425 24.7159 19.8382 24.7159 14.7027C24.7159 9.70361 28.3485 5.96295 33.1694 5.96295C38.025 5.96295 41.454 9.73769 41.454 14.7027C41.454 14.8705 41.4467 15.1966 41.44 15.4646C41.4342 15.703 41.2396 15.8931 41.0016 15.893H28.62C28.7902 18.3077 30.9287 20.1102 33.4076 20.1102C35.2412 20.1102 36.2501 19.4419 37.1149 18.3284C37.255 18.1451 37.513 18.1016 37.7054 18.2289C38.2745 18.6165 39.4262 19.2848 40.0308 19.6858ZM51.238 19.5602C49.3997 19.5602 48.5509 18.7101 48.5509 16.798V9.8052H50.4699C50.7124 9.8052 50.909 9.60831 50.909 9.36543V6.77498C50.9086 6.53225 50.7123 6.33558 50.4699 6.33521H48.5543V2.17551C48.5544 2.05882 48.5082 1.94686 48.4259 1.86435C48.3435 1.78184 48.2317 1.73575 48.1152 1.73575H45.1793C44.9368 1.73575 44.7402 1.93264 44.7402 2.17551V6.33855H42.9093C42.6671 6.33892 42.4709 6.5357 42.4709 6.77832V9.36877C42.4707 9.48534 42.5168 9.5972 42.5991 9.67969C42.6813 9.76218 42.7929 9.80854 42.9093 9.80854H44.7382V17.5418C44.7382 21.1508 46.8241 23.3135 50.2885 23.3135C50.889 23.3135 51.3134 23.2467 51.7858 23.0736C52.0866 22.9609 52.2846 22.6715 52.2809 22.3498L52.2715 19.9438C52.2695 19.8183 52.2138 19.6996 52.1187 19.6178C52.0235 19.5361 51.898 19.499 51.7738 19.5161C51.5962 19.5414 51.4173 19.5561 51.238 19.5602ZM61.6758 19.5602C59.8375 19.5602 58.9895 18.7101 58.9895 16.798V9.8052H60.9085C61.0249 9.8052 61.1365 9.75884 61.2187 9.67635C61.3009 9.59386 61.347 9.482 61.3469 9.36543V6.77498C61.3469 6.53236 61.1507 6.33558 60.9085 6.33521H58.9895V2.17551C58.9895 1.93264 58.7929 1.73575 58.5504 1.73575H55.6145C55.4981 1.73575 55.3865 1.7821 55.3043 1.86459C55.222 1.94708 55.1759 2.05894 55.1761 2.17551V6.33855H53.3478C53.1055 6.33892 52.9091 6.5356 52.9088 6.77832V9.36877C52.9088 9.48541 52.955 9.59726 53.0374 9.67973C53.1197 9.76221 53.2314 9.80854 53.3478 9.80854H55.1768V17.5418C55.1768 21.1508 57.2626 23.3135 60.727 23.3135C61.3275 23.3135 61.7519 23.2467 62.2243 23.0736C62.5247 22.9605 62.7226 22.6713 62.7194 22.3498L62.7101 19.9438C62.7078 19.8182 62.652 19.6996 62.5567 19.6178C62.4615 19.5361 62.3359 19.4991 62.2116 19.5161C62.0341 19.5414 61.8551 19.5562 61.6758 19.5602ZM11.513 11.4894V13.9876C11.513 14.1041 11.5592 14.2158 11.6414 14.2981C11.7236 14.3805 11.8351 14.4267 11.9514 14.4267H18.734C18.2275 17.6347 15.5979 19.9151 12.0828 19.9151C7.80703 19.9151 4.48144 16.3622 4.48144 12.016C4.48144 7.63779 7.83839 4.11635 12.0508 4.11635C14.4115 4.11635 16.4166 5.07407 17.7311 6.80104C17.8667 6.9786 18.1141 7.02528 18.3049 6.90931L20.8499 5.36747C20.9443 5.31004 21.0103 5.21551 21.0317 5.10696C21.0532 4.99841 21.0281 4.88584 20.9626 4.79671C19.0943 2.21628 15.8848 0.5 12.0828 0.5C5.78325 0.5 0.616699 5.67089 0.616699 12.016C0.616699 18.3612 5.68783 23.5 12.0508 23.5C18.3543 23.5 22.6521 18.7101 22.6521 12.5233V11.5355C22.6521 11.4189 22.6059 11.307 22.5235 11.2246C22.4412 11.1421 22.3295 11.0957 22.2131 11.0957H11.906C11.6889 11.0957 11.513 11.272 11.513 11.4894Z" fill="#1A1243"/>
<path d="M68.0047 18.5604C67.144 18.5604 66.5768 18.6746 66.2172 18.9881C65.8168 19.337 65.674 19.9338 65.674 20.8948C65.674 21.759 65.7888 22.3291 66.1044 22.6886C66.4534 23.0896 67.0479 23.2287 68.0047 23.2287C68.9389 23.2287 69.5327 23.095 69.8844 22.712C70.218 22.3531 70.3354 21.7764 70.3354 20.8948C70.3354 20.026 70.218 19.4512 69.8977 19.0903C69.5474 18.6994 68.9542 18.5604 68.0047 18.5604Z" fill="#1A1243"/>
</svg>
