<svg width="69" height="28" viewBox="0 0 69 28" fill="none" xmlns="http://www.w3.org/2000/svg">
<path d="M18.5977 10.9916C21.7553 10.3593 24.4791 9.4515 24.4791 9.4515C23.3245 0.598081 13.8076 0.5 13.8076 0.5C9.89028 0.5 6.672 1.83558 4.1511 4.5062C1.71686 7.10275 0.5 10.3013 0.5 14.1025C0.5 17.8666 1.67379 20.9969 4.02137 23.4938C6.54227 26.1649 9.909 27.5 14.1226 27.5C16.4453 27.5 18.5458 27.2392 20.4243 26.7174C22.3023 26.1957 23.6613 25.674 24.5019 25.1523L24.5145 13.6121C24.5145 13.3789 24.2918 13.2067 24.0703 13.2761C22.5706 13.7472 18.8624 14.7651 14.7344 15.4079V17.766C16.1303 17.791 17.057 17.9152 17.5142 18.1385C18.2184 18.499 18.8821 19.2565 18.8821 20.4115V21.5306C18.8821 22.3131 18.5531 22.9878 18.0892 23.4385C17.4577 24.052 16.4458 24.4631 14.8273 24.4631C11.8368 24.4631 9.37348 23.0967 8.47782 21.0319C7.40315 18.5543 7.54118 17.1884 7.54118 14.0086C7.54118 10.1329 7.56765 8.8296 8.82394 6.76833C9.8405 5.10043 11.8212 4.32152 13.5305 4.3716C13.5305 4.3716 16.4484 4.11388 17.7997 6.7292C18.7664 8.60057 18.5977 10.9916 18.5977 10.9916Z" fill="#1A1243"/>
<path d="M46.0996 7.90117C46.933 7.90117 47.6314 7.62415 48.195 7.06852C48.758 6.51395 49.0398 5.8399 49.0398 5.0469C49.0398 4.20904 48.758 3.50682 48.195 2.94025C47.6314 2.37419 46.933 2.0909 46.0996 2.0909C45.3109 2.0909 44.6404 2.37419 44.0888 2.94025C43.5367 3.50682 43.2606 4.20904 43.2606 5.0469C43.2606 5.81747 43.5419 6.48577 44.1054 7.05183C44.669 7.6184 45.3337 7.90117 46.0996 7.90117Z" fill="#1A1243"/>
<path d="M33.2365 9.48913C33.4668 9.36815 33.7408 9.56166 33.7408 9.82309L33.7361 13.6942C34.4149 12.7592 35.2249 11.9266 36.0801 11.2437C36.9347 10.5613 37.8018 10.2201 38.6825 10.2201C40.3669 10.2201 41.2096 10.8524 41.2096 12.116C41.2096 12.7738 40.9579 13.462 40.4551 14.1824C39.9517 14.9029 39.4234 15.2634 38.8708 15.2634C38.6445 15.2634 38.3929 15.2066 38.1163 15.0928C37.8392 14.9791 37.5626 14.8461 37.2866 14.6948C36.5824 14.341 36.1045 14.1637 35.8534 14.1637C35.1237 14.1637 34.5519 14.4355 34.1372 14.9791C33.7226 15.5232 33.5151 16.4769 33.5151 17.8417V23.6812C33.5151 23.7819 33.5218 23.8758 33.5322 23.9661V26.8558L28.0618 26.8532V11.7367C28.0618 11.7367 30.8204 10.7585 33.2365 9.48913Z" fill="#1A1243"/>
<path d="M43.5697 26.8549L43.5717 24.2672C43.5723 24.2485 43.5743 24.2307 43.5743 24.212V16.0211C43.5743 15.9778 43.5728 15.9382 43.5717 15.8964V11.7086C43.5717 11.7086 46.0922 10.7811 48.5388 9.58483C48.7781 9.46797 49.0567 9.64477 49.0567 9.91241V15.2396C49.0484 15.4645 49.0427 15.6773 49.0427 15.8693V24.1738C49.0427 24.2334 49.0484 24.2902 49.0567 24.3455V26.8549H43.5697Z" fill="#1A1243"/>
<path d="M63.0192 26.8419V24.3372C63.0238 24.2735 63.0269 24.2073 63.0269 24.1363V16.666C63.0269 16.5711 63.0233 16.4792 63.0192 16.388L62.9792 15.9392C62.8988 15.3429 62.714 14.8505 62.4235 14.466C62.0208 13.9354 61.4931 13.6698 60.8392 13.6698C60.3867 13.6698 59.9716 13.7397 59.5944 13.8785C59.2171 14.0178 58.8025 14.2385 58.3495 14.5421C58.1481 14.6689 58.048 14.8964 58.048 15.2245V24.1353C58.048 24.2031 58.0506 24.2662 58.0547 24.3267V26.8555L52.5796 26.8529V11.7515C55.1794 10.7702 56.91 9.94744 57.7153 9.54154C57.9556 9.42048 58.2363 9.59686 58.2363 9.8671V12.8742C59.1917 11.9899 60.0842 11.3326 60.9145 10.9026C61.7442 10.4733 62.6995 10.2578 63.781 10.2578C65.1634 10.2578 66.2951 10.7509 67.1752 11.7369C68.0553 12.7229 68.4953 14.0502 68.4953 15.7185V24.1369C68.4953 24.189 68.4969 24.2386 68.5 24.2866V26.8544L63.0187 26.8534" fill="#1A1243"/>
</svg>
