<svg width="139" height="30" viewBox="0 0 139 30" fill="none" xmlns="http://www.w3.org/2000/svg">
<path d="M14.4488 0.0315842L10.3399 2.39221C10.1541 2.49899 10.0394 2.6979 10.0394 2.91336V13.435C10.0394 13.4768 10.0501 13.5178 10.0707 13.554C10.1359 13.6691 10.2815 13.7092 10.3958 13.6435L14.5648 11.2483C14.7135 11.1629 14.8053 11.0038 14.8053 10.8314V0.240042C14.8053 0.198329 14.7945 0.157337 14.7739 0.121106C14.7087 0.00597821 14.5631 -0.0341022 14.4488 0.0315842Z" fill="#1A1243"/>
<path d="M14.4488 16.3565L10.3399 18.7171C10.1541 18.8239 10.0394 19.0228 10.0394 19.2383V29.76C10.0394 29.8017 10.0501 29.8427 10.0707 29.8789C10.1359 29.994 10.2815 30.0341 10.3958 29.9684L14.5648 27.5732C14.7135 27.4878 14.8053 27.3287 14.8053 27.1563V16.565C14.8053 16.5232 14.7945 16.4823 14.7739 16.446C14.7087 16.3309 14.5631 16.2908 14.4488 16.3565Z" fill="#1A1243"/>
<path d="M4.67868 5.67328L0.569798 8.03391C0.383951 8.14069 0.269226 8.3396 0.269226 8.55506V23.8782C0.269226 23.9199 0.280023 23.9609 0.300551 23.9971C0.365784 24.1122 0.511351 24.1523 0.625683 24.0866L4.79468 21.6915C4.94336 21.6061 5.03514 21.4469 5.03514 21.2746V5.88174C5.03514 5.84003 5.02434 5.79903 5.00382 5.7628C4.93858 5.64768 4.79302 5.6076 4.67868 5.67328Z" fill="#1A1243"/>
<path d="M23.7423 6.15343L19.6335 8.51406C19.4476 8.62083 19.3329 8.81975 19.3329 9.0352V24.3583C19.3329 24.4 19.3437 24.441 19.3642 24.4773C19.4294 24.5924 19.575 24.6325 19.6893 24.5668L23.8583 22.1716C24.007 22.0862 24.0988 21.9271 24.0988 21.7547V6.36188C24.0988 6.32017 24.088 6.27918 24.0675 6.24295C24.0022 6.12782 23.8567 6.08774 23.7423 6.15343Z" fill="#1A1243"/>
<path d="M33.9246 7.47168V22.7217C33.9246 22.8598 34.0357 22.9717 34.1729 22.9717H35.821C35.9581 22.9717 36.0692 22.8598 36.0692 22.7217V15.9067H43.2628V22.7217C43.2628 22.8598 43.374 22.9717 43.5111 22.9717H45.1592C45.2963 22.9717 45.4075 22.8598 45.4075 22.7217V7.47168C45.4075 7.33361 45.2963 7.22168 45.1592 7.22168H43.5111C43.374 7.22168 43.2628 7.33361 43.2628 7.47168V13.9267H36.0692V7.47168C36.0692 7.33361 35.9581 7.22168 35.821 7.22168H34.1729C34.0357 7.22168 33.9246 7.33361 33.9246 7.47168Z" fill="#1A1243"/>
<path d="M53.1148 17.4592V22.7217C53.1148 22.8598 53.226 22.9717 53.3631 22.9717H55.0112C55.1483 22.9717 55.2595 22.8598 55.2595 22.7217V17.4592L60.5149 7.50742C60.5298 7.47931 60.5375 7.44796 60.5375 7.41613C60.5375 7.30874 60.4511 7.22168 60.3444 7.22168H58.5541C58.4514 7.22168 58.3573 7.27904 58.3097 7.37059L54.2095 15.2542L50.1093 7.37059C50.0617 7.27904 49.9676 7.22168 49.865 7.22168H48.0299C47.9983 7.22168 47.9671 7.2295 47.9392 7.24444C47.8451 7.29486 47.8093 7.4126 47.8594 7.50742L53.1148 17.4592Z" fill="#1A1243"/>
<path d="M62.0733 19.8217C62.0733 21.9592 63.0786 22.9717 65.2009 22.9717H69.9817C72.104 22.9717 73.1093 21.9592 73.1093 19.8217V17.6617C73.1093 15.4117 71.7019 14.8492 69.8924 14.4442L65.5807 13.4542C64.6647 13.2517 64.2626 12.9592 64.2626 11.9917V10.3492C64.2626 9.47169 64.5977 9.13419 65.469 9.13419H69.5349C70.4062 9.13419 70.7413 9.47169 70.7413 10.3492V10.9242C70.7413 11.0623 70.8524 11.1742 70.9896 11.1742H72.6153C72.7524 11.1742 72.8636 11.0623 72.8636 10.9242V10.3717C72.8636 8.23418 71.8583 7.22168 69.736 7.22168H65.2456C63.1233 7.22168 62.118 8.23418 62.118 10.3717V12.2842C62.118 14.5342 63.503 15.0967 65.3349 15.5017L69.6243 16.4692C70.5626 16.6942 70.9647 16.9867 70.9647 17.9542V19.8442C70.9647 20.7217 70.6296 21.0592 69.736 21.0592H65.402C64.5084 21.0592 64.1733 20.7217 64.1733 19.8442V19.0892C64.1733 18.9511 64.0621 18.8392 63.925 18.8392H62.3215C62.1844 18.8392 62.0733 18.9511 62.0733 19.0892V19.8217Z" fill="#1A1243"/>
<path fill-rule="evenodd" clip-rule="evenodd" d="M76.17 19.8217C76.17 21.9592 77.1753 22.9717 79.2976 22.9717H84.5029C86.6252 22.9717 87.6305 21.9592 87.6305 19.8217V10.3717C87.6305 8.23418 86.6252 7.22168 84.5029 7.22168H79.2976C77.1753 7.22168 76.17 8.23418 76.17 10.3717V19.8217ZM84.2571 20.9917H79.521C78.6497 20.9917 78.3146 20.6542 78.3146 19.7542V10.4392C78.3146 9.53919 78.6497 9.20169 79.521 9.20169H84.2571C85.1507 9.20169 85.4858 9.53919 85.4858 10.4392V19.7542C85.4858 20.6542 85.1507 20.9917 84.2571 20.9917Z" fill="#1A1243"/>
<path d="M91.1104 7.47168V22.7217C91.1104 22.8598 91.2215 22.9717 91.3587 22.9717H99.9321C100.043 22.9717 100.141 22.8972 100.171 22.7893L100.584 21.3093C100.59 21.2873 100.593 21.2646 100.593 21.2417C100.593 21.1037 100.482 20.9917 100.344 20.9917H93.5033C93.3662 20.9917 93.2551 20.8798 93.2551 20.7417V7.47168C93.2551 7.33361 93.1439 7.22168 93.0068 7.22168H91.3587C91.2215 7.22168 91.1104 7.33361 91.1104 7.47168Z" fill="#1A1243"/>
<path fill-rule="evenodd" clip-rule="evenodd" d="M111.914 18.6742L113.287 22.8011C113.321 22.903 113.416 22.9717 113.523 22.9717H115.379C115.404 22.9717 115.428 22.9676 115.452 22.9594C115.567 22.9192 115.628 22.7926 115.588 22.6766L110.319 7.38971C110.284 7.28912 110.19 7.22168 110.084 7.22168H107.667C107.562 7.22168 107.467 7.28912 107.433 7.38971L102.164 22.6766C102.156 22.7001 102.152 22.7247 102.152 22.7495C102.152 22.8722 102.25 22.9717 102.372 22.9717H104.117C104.224 22.9717 104.319 22.903 104.353 22.8011L105.726 18.6742H111.914ZM111.378 16.6942H106.486L108.943 9.31419L111.378 16.6942Z" fill="#1A1243"/>
<path d="M119.492 9.17919V22.7217C119.492 22.8598 119.603 22.9717 119.74 22.9717H121.388C121.525 22.9717 121.636 22.8598 121.636 22.7217V9.17919H126.012C126.15 9.17919 126.261 9.06726 126.261 8.92918V7.47168C126.261 7.33361 126.15 7.22168 126.012 7.22168H115.138C115.001 7.22168 114.89 7.33361 114.89 7.47168V8.92918C114.89 9.06726 115.001 9.17919 115.138 9.17919H119.492Z" fill="#1A1243"/>
<path d="M128.958 7.47168V22.7217C128.958 22.8598 129.07 22.9717 129.207 22.9717H138.483C138.62 22.9717 138.731 22.8598 138.731 22.7217V21.2417C138.731 21.1037 138.62 20.9917 138.483 20.9917H131.351C131.214 20.9917 131.103 20.8798 131.103 20.7417V15.9067H137.986C138.123 15.9067 138.235 15.7948 138.235 15.6567V14.1767C138.235 14.0386 138.123 13.9267 137.986 13.9267H131.103V9.45169C131.103 9.31362 131.214 9.20169 131.351 9.20169H138.483C138.62 9.20169 138.731 9.08976 138.731 8.95169V7.47168C138.731 7.33361 138.62 7.22168 138.483 7.22168H129.207C129.07 7.22168 128.958 7.33361 128.958 7.47168Z" fill="#1A1243"/>
</svg>
