<svg width="65" height="26" viewBox="0 0 65 26" fill="none" xmlns="http://www.w3.org/2000/svg">
<path d="M4.36465 19.101V3.17292H0V23.0898H14.2687V23.0626C13.2295 21.9022 12.3981 20.5605 11.8288 19.101H4.36465Z" fill="#1A1243"/>
<path d="M43.303 23.0898H47.6676V15.3751H57.1379V11.3953H47.6676V7.15267H58.4121V3.17292H43.303V23.0898Z" fill="#1A1243"/>
<path d="M65 3.17292H60.6354V23.0898H65V3.17292Z" fill="#1A1243"/>
<path d="M25.2845 0C18.1998 0 12.4435 5.77472 12.4435 12.8821C12.4435 19.9894 18.2089 25.7641 25.2845 25.7641C27.1821 25.7641 29.0618 25.338 30.7787 24.5222L28.5467 21.0954C24.0194 22.9085 18.8866 20.6875 17.0793 16.1456C15.272 11.6038 17.4859 6.45463 22.0132 4.64153C26.5406 2.82843 31.6733 5.04948 33.4806 9.59129C34.2939 11.6492 34.321 13.9337 33.5348 16.0006L35.9928 19.9713C37.3844 17.8681 38.1254 15.3932 38.1254 12.873C38.1254 5.77472 32.3691 0 25.2845 0Z" fill="#1A1243"/>
<path d="M27.9589 13.3536H27.5703C26.0974 13.3536 24.7148 14.0879 23.8924 15.3208L20.9736 19.5815H25.6455L27.1095 17.4784C27.1818 17.3786 27.2721 17.3061 27.3806 17.2698L29.8114 13.8612C29.2511 13.5349 28.6186 13.3536 27.9589 13.3536Z" fill="#1A1243"/>
<path d="M35.613 22.0292C35.5497 21.9839 35.4955 21.9295 35.4594 21.8751L31.0767 15.0578C30.7513 14.5502 30.3176 14.1422 29.8115 13.8521L27.3807 17.2607C27.5434 17.1973 27.7241 17.2154 27.8777 17.3242C27.941 17.3695 27.9952 17.4149 28.0313 17.4783L32.4141 24.2956C32.7575 24.8214 33.2183 25.2474 33.7605 25.5466L36.1733 22.0745C35.9925 22.1561 35.7847 22.147 35.613 22.0292Z" fill="#1A1243"/>
<path d="M37.8449 19.772L36.3809 21.8843C36.3267 21.9659 36.2454 22.0293 36.1641 22.0746L33.7513 25.5467C34.2845 25.8368 34.8989 26 35.5225 26H35.911C37.384 26 38.7666 25.2657 39.5889 24.0328L42.5077 19.772H37.8449Z" fill="#1A1243"/>
</svg>
