<svg width="183" height="30" viewBox="0 0 183 30" fill="none" xmlns="http://www.w3.org/2000/svg">
<g clip-path="url(#clip0_206_174)">
<path d="M51.4611 24.8557H49.3135V0.851013H51.4611V24.8557ZM67.5066 8.27228H69.7464V24.8557H67.5681V22.107C66.801 23.634 64.9295 24.8557 62.0761 24.8557H61.3705C57.5355 24.8557 55.3878 20.7632 55.3878 17.3733C55.3878 14.869 55.3878 10.7766 55.3878 8.27228H57.5967V17.8008C57.5967 20.58 59.6831 23.2065 62.567 23.2065C65.4817 23.2065 67.5066 20.2745 67.5066 17.526C67.5066 14.3803 67.5066 11.479 67.5066 8.27228ZM76.1195 24.8557H73.9719V8.27228H76.1195V11.418C76.8251 9.89091 78.6967 8.27228 81.5499 8.27228H82.3169C86.0907 8.27228 88.2384 12.4563 88.2384 15.8462C88.2384 18.3505 88.2384 22.3818 88.2384 24.8557H86.0294V15.3577C86.0294 12.5785 84.0045 10.0131 81.0592 10.0131C78.2058 10.0131 76.1195 12.8533 76.1195 15.6325C76.1195 18.8392 76.1808 21.7405 76.1195 24.8557ZM106.118 8.27228H108.265V24.8557H106.118V20.8548C105.013 23.1453 102.497 24.8557 99.337 24.8557H98.5087C94.4895 24.8557 91.4214 21.1908 91.4214 16.6097C91.4214 12.0287 94.4895 8.27228 98.5087 8.27228H99.337C102.62 8.27228 104.86 9.86036 106.118 12.3037V8.27228ZM105.688 17.1595V16.06C105.688 12.8533 103.049 10.2268 99.8279 10.2268C95.9929 10.2268 93.7225 13.4335 93.7225 16.5487C93.7225 19.7553 95.9316 22.9315 99.8279 22.9315C103.049 22.9315 105.688 20.3662 105.688 17.1595ZM112.502 24.8557V8.27228H114.65V11.3263C116.307 9.40226 118.485 7.93633 122.044 8.27228V10.9903C118.639 10.0131 114.65 11.9065 114.65 16.3348C114.65 16.6097 114.65 18.5643 114.65 20.2135V24.8557H112.502ZM123.411 21.9543C124.178 21.9543 124.823 22.5957 124.823 23.3592C124.823 24.1837 124.178 24.7945 123.411 24.7945C122.583 24.7945 121.969 24.1837 121.969 23.3592C121.969 22.5957 122.583 21.9543 123.411 21.9543ZM141.773 0.881563H143.921V24.8557H141.773V20.8548C140.73 23.2065 138.429 24.8557 134.931 24.8557H134.195C130.053 24.8557 127.016 21.1908 127.016 16.6097C127.016 12.0287 130.053 8.30281 134.195 8.30281H134.931C138.214 8.30281 140.73 9.95198 141.773 12.3037V0.881563ZM141.282 17.19V16.06C141.282 12.8838 138.705 10.2268 135.484 10.2268C131.587 10.2268 129.286 13.4335 129.286 16.6097C129.348 19.8165 131.587 22.9315 135.484 22.9315C138.705 22.9315 141.282 20.3662 141.282 17.19ZM149.567 17.4343C149.721 20.58 152.635 23.0537 155.796 23.0537C158.281 23.0537 160.796 21.4657 161.625 19.3278H163.803C162.699 22.504 159.907 24.8557 156.256 24.8557H155.366C150.764 24.8557 147.358 21.1908 147.358 16.6097C147.358 12.0287 150.764 8.27228 155.366 8.27228H156.256C160.796 8.27228 164.294 12.0287 164.294 16.6097C164.294 16.8847 164.294 17.1595 164.233 17.4343H149.567ZM149.567 15.7852H162.054C161.932 12.67 158.986 10.0741 155.796 10.0741C152.635 10.0741 149.721 12.6395 149.567 15.7852ZM165.497 8.27228H167.767L173.628 22.565L179.58 8.27228H181.88L175.039 24.8557H172.308L165.497 8.27228Z" fill="#1A1243"/>
<path fill-rule="evenodd" clip-rule="evenodd" d="M38.8409 26.7808C30.3676 29.3333 20.5911 26.6508 14.2661 19.2303C9.31089 13.417 7.58292 5.99668 8.94689 -0.746307C7.96488 1.72638 7.42529 4.42121 7.42529 7.24149C7.42529 19.2463 17.2019 28.9783 29.262 28.9783C32.6981 28.9783 35.9488 28.1883 38.8409 26.7808Z" fill="#1A1243"/>
<path fill-rule="evenodd" clip-rule="evenodd" d="M40.885 2.98578C38.494 5.37488 35.7716 7.87233 32.8167 10.3538C21.1135 20.1825 10.1989 26.0386 8.4381 23.4343C8.37807 23.3455 8.32947 23.248 8.29203 23.1421C8.17809 23.8108 8.24503 24.3546 8.51157 24.7488C10.2411 27.307 19.7201 22.5978 29.6834 14.2303C34.288 10.3633 38.1902 6.39183 40.885 2.98578Z" fill="#1A1243"/>
</g>
<defs>
<clipPath id="clip0_206_174">
<rect width="182" height="30" fill="white" transform="translate(0.5)"/>
</clipPath>
</defs>
</svg>
