<svg width="115" height="26" viewBox="0 0 115 26" fill="none" xmlns="http://www.w3.org/2000/svg">
<g clip-path="url(#clip0_206_165)">
<path fill-rule="evenodd" clip-rule="evenodd" d="M0.501221 12.6742V0.365945C0.501221 0.169584 0.66188 0 0.867166 0H15.5496C10.4621 2.32955 7.16857 7.44386 7.16857 13.0401H0.867166C0.66188 13.0401 0.501221 12.8795 0.501221 12.6742ZM32.8829 18.2438C33.0525 18.2438 33.2221 18.226 33.3917 18.1992C31.4013 22.7869 26.8315 26.0001 21.4762 26.0001C14.3268 26.0001 8.52526 20.1985 8.52526 13.0492C8.52526 11.8889 8.67699 10.7643 8.9626 9.69321C9.25715 9.38082 9.66772 9.18446 10.1229 9.18446C11.0066 9.18446 11.7295 9.90742 11.7295 10.8V11.3177V11.3444V15.2806C11.7295 16.905 13.0505 18.2349 14.6749 18.2349C16.2994 18.2349 17.6204 16.9139 17.6204 15.2806V12.1031V12.0763V10.8C17.6204 9.90742 18.3433 9.18446 19.2269 9.18446C20.1106 9.18446 20.8335 9.90742 20.8335 10.8V14.3255V15.2806C20.8335 16.905 22.1545 18.2349 23.7789 18.2349C25.4034 18.2349 26.7244 16.9139 26.7244 15.2806V12.1031V12.0763V10.8C26.7244 9.90742 27.4473 9.18446 28.3309 9.18446C29.2146 9.18446 29.9375 9.90742 29.9375 10.8V10.9071V10.9339V15.2895C29.9375 16.9139 31.2585 18.2438 32.8829 18.2438ZM10.1585 7.84556C11.783 7.84556 13.1039 9.17545 13.1039 10.7999V14.736V14.7628V15.2805C13.1039 16.173 13.8269 16.896 14.7105 16.896C15.5942 16.896 16.3171 16.173 16.3171 15.2805V14.4326V14.4058V10.7999C16.3171 9.16653 17.6381 7.84556 19.2625 7.84556C20.887 7.84556 22.208 9.17545 22.208 10.7999V10.9249V15.2805C22.208 16.173 22.9309 16.896 23.8145 16.896C24.6982 16.896 25.4211 16.173 25.4211 15.2805V14.4326V14.4058V10.7999C25.4211 9.16653 26.7421 7.84556 28.3665 7.84556C29.991 7.84556 31.312 9.17545 31.312 10.7999V14.3255V14.3522V15.2805C31.312 16.173 32.0349 16.896 32.9185 16.896C33.3559 16.896 33.7575 16.7175 34.0432 16.4319C34.3377 15.3519 34.4984 14.2094 34.4984 13.0402C34.4984 5.89087 28.6968 0.0893008 21.5475 0.0893008C16.2279 0.0893008 11.658 3.30248 9.65869 7.89018C9.8015 7.86341 9.98001 7.84556 10.1585 7.84556ZM27.6883 25.991C32.6419 23.6169 35.8462 18.5383 35.8462 13.0491H42.1565C42.3618 13.0491 42.5224 13.2097 42.5224 13.415V25.6251C42.5224 25.8304 42.3618 25.991 42.1565 25.991H27.6883ZM104.756 14.2036V22.9468H106.993C107.929 22.9468 108.618 22.7172 109.06 22.2749C109.502 21.8241 109.74 21.1182 109.766 20.1401C109.791 19.7319 109.808 19.1961 109.808 18.5497C109.808 17.9033 109.791 17.376 109.766 16.9847C109.74 16.0407 109.485 15.3348 109.009 14.884C108.532 14.4332 107.827 14.2036 106.891 14.2036H104.756ZM107.095 26.0001H101.448C101.303 26.0001 101.184 25.9491 101.065 25.8385C100.954 25.7279 100.903 25.6089 100.903 25.4643V11.6776C100.903 11.5245 100.954 11.3969 101.065 11.2949C101.176 11.2013 101.295 11.1503 101.439 11.1503H106.985C109.077 11.1503 110.701 11.6521 111.849 12.6387C112.998 13.6253 113.602 15.0626 113.661 16.9422C113.67 17.3505 113.678 17.8948 113.678 18.5752C113.678 19.2556 113.678 19.7999 113.661 20.1912C113.584 22.1558 113.006 23.6187 111.9 24.5713C110.803 25.5238 109.196 26.0001 107.095 26.0001ZM88.0948 26.0001H85.5347C85.3902 26.0001 85.2711 25.9491 85.1605 25.847C85.0499 25.7364 84.9989 25.6174 84.9989 25.4728V11.6861C84.9989 11.533 85.0499 11.3969 85.1605 11.3034C85.2711 11.2098 85.3902 11.1588 85.5347 11.1588H87.7971C88.1458 11.1588 88.3924 11.2949 88.52 11.5585L93.7251 19.7064V11.6861C93.7251 11.533 93.7761 11.3969 93.8867 11.3034C93.9973 11.2098 94.1163 11.1588 94.2609 11.1588H96.8209C96.974 11.1588 97.1016 11.2013 97.2037 11.3034C97.2972 11.4054 97.3483 11.533 97.3483 11.6861V25.4473C97.3483 25.6004 97.3057 25.7365 97.2037 25.8385C97.1016 25.9491 96.974 26.0001 96.8209 26.0001H94.5416C94.2269 26.0001 93.9888 25.8725 93.8357 25.6004L88.6306 17.7502V25.4643C88.6306 25.6089 88.5796 25.7365 88.4775 25.8385C88.3754 25.9491 88.2479 26.0001 88.0948 26.0001ZM81.3928 26.0001H71.2633C71.1187 26.0001 70.9911 25.9491 70.889 25.83C70.7785 25.7194 70.7274 25.6004 70.7274 25.4558V11.6691C70.7274 11.516 70.7785 11.3884 70.889 11.2864C70.9996 11.1928 71.1187 11.1418 71.2633 11.1418H81.2227C81.3758 11.1418 81.5033 11.1843 81.6054 11.2864C81.7075 11.3884 81.7585 11.516 81.7585 11.6691V13.6593C81.7585 13.8039 81.7075 13.9314 81.6054 14.0335C81.5033 14.1441 81.3758 14.1951 81.2227 14.1951H74.4186V17.0613H80.7549C80.908 17.0613 81.0356 17.1123 81.1376 17.2229C81.2397 17.325 81.2907 17.461 81.2907 17.6141V19.4597C81.2907 19.6043 81.2397 19.7319 81.1376 19.8339C81.0441 19.9445 80.908 19.9955 80.7549 19.9955H74.4186V22.9468H81.3928C81.5459 22.9468 81.6734 22.9893 81.7755 23.0914C81.8776 23.1934 81.9286 23.321 81.9286 23.4741V25.4643C81.9286 25.6089 81.8776 25.7365 81.7755 25.8385C81.6734 25.9491 81.5459 26.0001 81.3928 26.0001ZM55.597 26.0001H53.0369C52.8924 26.0001 52.7648 25.9491 52.6542 25.847C52.5437 25.7364 52.4926 25.6174 52.4926 25.4728V11.6861C52.4926 11.533 52.5437 11.4054 52.6542 11.3034C52.7648 11.2098 52.8839 11.1588 53.0284 11.1588H55.3333C55.6735 11.1588 55.9287 11.3119 56.0817 11.6266L59.8325 18.3115L63.5832 11.6266C63.7448 11.3119 63.9915 11.1588 64.3317 11.1588H66.611C66.7641 11.1588 66.8917 11.2013 67.0022 11.3034C67.1128 11.4054 67.1638 11.533 67.1638 11.6861V25.4643C67.1638 25.6174 67.1128 25.745 67.0022 25.847C66.9002 25.9406 66.7641 25.9916 66.611 25.9916H64.0765C63.9234 25.9916 63.7958 25.9491 63.6853 25.847C63.5747 25.745 63.5237 25.6174 63.5237 25.4643V17.5121L61.1338 21.9432C60.9466 22.2664 60.7 22.428 60.3853 22.428H59.2797C59.0925 22.428 58.9394 22.3855 58.8289 22.3004C58.7183 22.2154 58.6163 22.0963 58.5312 21.9432L56.1243 17.5121V25.4643C56.1243 25.6089 56.0818 25.7365 55.9797 25.8385C55.8776 25.9491 55.7501 26.0001 55.597 26.0001Z" fill="#1A1243"/>
</g>
<defs>
<clipPath id="clip0_206_165">
<rect width="114" height="26" fill="white" transform="translate(0.5)"/>
</clipPath>
</defs>
</svg>
