<svg width="123" height="20" viewBox="0 0 123 20" fill="none" xmlns="http://www.w3.org/2000/svg">
<path fill-rule="evenodd" clip-rule="evenodd" d="M0.5 10C0.5 4.47811 5.06424 0 10.6923 0C15.6684 0 19.8037 3.46801 20.7131 8.08081L16.8352 17.963C15.1193 19.2424 13.0088 20 10.6923 20C5.06424 20 0.5 15.5219 0.5 10ZM4.73823 9.98316C4.73823 13.2155 7.39784 15.8249 10.6923 15.8249C13.9868 15.8249 16.6464 13.2155 16.6464 9.98316C16.6464 6.75084 13.9868 4.14142 10.6923 4.14142C7.39784 4.14142 4.73823 6.76768 4.73823 9.98316Z" fill="#1A1243"/>
<path fill-rule="evenodd" clip-rule="evenodd" d="M31.4031 0.504557C35.4354 0.504557 38.7985 1.76718 38.7985 6.29581C38.7985 10.7739 35.6928 12.1376 31.5918 12.1376H28.4518V19.5618H24.1621V0.504557H31.4031ZM28.4689 8.58537H31.3344C32.8444 8.58537 34.3544 8.08032 34.3544 6.29581C34.3544 4.32611 32.3125 4.05675 30.6653 4.05675H28.4689V8.58537Z" fill="#1A1243"/>
<path d="M46.9657 4.22508H41.4234V0.521376H56.8149V4.22508H51.2554V19.5786H46.9657V4.22508Z" fill="#1A1243"/>
<path d="M60.1615 0.521376H64.4512V19.5786H60.1615V0.521376Z" fill="#1A1243"/>
<path d="M73.3568 4.22508H67.8145V0.521376H83.1888V4.22508H77.6465V19.5786H73.3568V4.22508Z" fill="#1A1243"/>
<path d="M99.7638 0.521376H86.5515V19.5786H100.261V15.7066H90.8412V11.8177H99.2662V7.94562H90.8412V4.39343H99.7638V0.521376Z" fill="#1A1243"/>
<path d="M116.786 0.504557L112.805 7.18806L108.653 0.504557H103.265L109.699 9.61231L102.887 19.5786H107.966L112.582 11.9019L117.335 19.5786H122.723L115.688 9.52813L121.985 0.504557H116.786Z" fill="#1A1243"/>
</svg>
