<svg width="131" height="30" viewBox="0 0 131 30" fill="none" xmlns="http://www.w3.org/2000/svg">
<g clip-path="url(#clip0_206_171)">
<path fill-rule="evenodd" clip-rule="evenodd" d="M107.572 14.7519C107.572 18.0249 104.855 20.6878 101.515 20.6878C98.1755 20.6878 95.458 18.0249 95.458 14.7519C95.458 11.4788 98.1755 8.81592 101.515 8.81592C104.855 8.81592 107.572 11.4788 107.572 14.7519ZM107.736 0H107.572V8.33202C105.916 6.82764 103.781 6.00372 101.515 6.00372C96.5932 6.00372 92.5888 9.92796 92.5888 14.7519C92.5888 19.5755 96.5932 23.4999 101.515 23.4999C103.781 23.4999 105.916 22.6758 107.572 21.1716V23.52H110.442V0H107.736ZM48.062 14.6482C48.062 17.9214 45.3448 20.5842 42.0051 20.5842C38.6651 20.5842 35.9479 17.9214 35.9479 14.6482C35.9479 11.3752 38.6651 8.71242 42.0051 8.71242C45.3448 8.71242 48.062 11.3752 48.062 14.6482ZM42.0051 5.90027C39.7399 5.90027 37.6041 6.72432 35.9479 8.2287V5.88H33.0784V29.4H35.9479V21.0678C37.6041 22.5724 39.7399 23.3962 42.0051 23.3962C46.927 23.3962 50.9315 19.4719 50.9315 14.6482C50.9315 9.82465 46.927 5.90027 42.0051 5.90027ZM62.2036 8.71542C59.4588 8.71542 57.0524 10.6241 56.4066 13.2824H67.7866C67.1818 10.5834 64.9126 8.71542 62.2036 8.71542ZM53.4111 14.7C53.4111 9.83682 57.3553 5.88 62.2036 5.88C67.006 5.88 70.768 9.7542 70.768 14.7V16.1176H56.4066C57.0525 18.776 59.4588 20.6848 62.2036 20.6848C64.102 20.6848 65.8805 19.9813 66.961 18.8032L67.8082 17.879L67.918 17.7598L68.0368 17.8696L69.8788 19.5692L69.9976 19.6792L69.8884 19.7984L69.0412 20.7226C67.4105 22.5003 64.9186 23.52 62.2036 23.52C57.3553 23.52 53.4111 19.5633 53.4111 14.7ZM121.351 20.6847C124.692 20.6847 127.408 18 127.408 14.7001C127.408 11.4 124.692 8.7153 121.351 8.7153C118.012 8.7153 115.295 11.4 115.295 14.7001C115.295 18 118.012 20.6847 121.351 20.6847ZM112.425 14.7001C112.425 9.83665 116.43 5.88 121.351 5.88C126.275 5.88 130.278 9.83665 130.278 14.7001C130.278 19.5633 126.275 23.52 121.351 23.52C116.43 23.52 112.425 19.5633 112.425 14.7001ZM76.0415 8.02608C77.5366 6.6393 79.4362 5.88 81.43 5.88C85.942 5.88 89.6128 9.75504 89.6128 14.5181V23.52H86.8198V14.5181C86.8198 11.3064 84.4018 8.69328 81.43 8.69328C78.4588 8.69328 76.0415 11.3064 76.0415 14.5181V23.52H73.2478V5.88H76.0415V8.02608ZM14.1784 16.7999H0.678467L14.1784 3.59998H27.6785V16.7999L14.1784 30V16.7999Z" fill="#1A1243"/>
</g>
<defs>
<clipPath id="clip0_206_171">
<rect width="129.643" height="30" fill="white" transform="translate(0.678467)"/>
</clipPath>
</defs>
</svg>
