<svg width="81" height="30" viewBox="0 0 81 30" fill="none" xmlns="http://www.w3.org/2000/svg">
<path fill-rule="evenodd" clip-rule="evenodd" d="M0 5.89289C0 9.14728 2.61025 11.7858 5.83051 11.7858C9.05005 11.7858 11.6603 9.14728 11.6603 5.89289C11.6603 2.6385 9.05005 0 5.83051 0C2.61025 0 0 2.6385 0 5.89289ZM19.6106 12.3209V19.2852H23.8506V17.8114H21.099V16.4753H23.5874V15.1108H21.099V13.7848H23.8417V12.3209H19.6106ZM16.0115 25.2749C16.0115 25.8158 15.6285 26.1594 15.0679 26.1594H14.2074V24.3818H15.0679C15.6285 24.3818 16.0115 24.7155 16.0115 25.2749ZM14.1979 30V27.4952H15.2179C16.564 27.4952 17.4905 26.5815 17.4905 25.2662C17.4905 23.9688 16.564 23.0357 15.2179 23.0357H12.7204V30H14.1979ZM24.4363 26.513C24.4363 27.9073 23.4456 28.5298 22.5301 28.5298C21.604 28.5298 20.6135 27.9073 20.6135 26.513C20.6135 25.1172 21.604 24.4865 22.5301 24.4865C23.4456 24.4865 24.4363 25.1172 24.4363 26.513ZM25.9706 26.523C25.9706 24.4027 24.3902 23.0357 22.53 23.0357C20.6602 23.0357 19.0804 24.4027 19.0804 26.523C19.0804 28.6338 20.6602 30 22.53 30C24.3902 30 25.9706 28.6338 25.9706 26.523ZM28.0907 30H29.6808V23.0357H28.0907V30ZM33.8167 25.4234L36.5804 30H38.161V23.0357H36.6653V27.2688L34.148 23.0357H32.3309V30H33.8167V25.4234ZM43.4352 24.519V30H41.8864V24.519H39.7511V23.0357H45.5813V24.519H43.4352ZM28.2951 15.3566C28.8965 15.3566 29.2221 15.003 29.2221 14.5122C29.2221 13.9914 28.8965 13.6672 28.2951 13.6672H27.4336V15.3566H28.2951ZM27.9524 16.6921H27.4335V19.2852H25.9706V12.3209H28.5736C29.8697 12.3209 30.7032 13.2646 30.7032 14.5018C30.7032 15.4448 30.2122 16.162 29.4066 16.4671L30.7407 19.2852H29.1286L27.9524 16.6921ZM35.9078 12.3209C33.9723 12.3209 32.3309 13.7336 32.3309 15.8168C32.3309 17.8999 33.9335 19.2852 35.9279 19.2852C38.0775 19.2852 38.996 17.8718 39.2211 16.9478L37.7455 16.5427C37.609 17.0232 37.1296 17.7964 35.9279 17.7964C34.8908 17.7964 33.9335 17.0705 33.9335 15.8168C33.9335 14.4129 34.9785 13.7721 35.9078 13.7721C37.1296 13.7721 37.5702 14.5549 37.6772 15.0155L39.1334 14.5733C38.9091 13.6117 37.9892 12.3209 35.9078 12.3209ZM41.3411 19.2852V12.3209H45.5722V13.7848H42.8295V15.1108H45.3178V16.4753H42.8295V17.8114H45.5812V19.2852H41.3411ZM51.5228 14.5602C51.5228 15.101 51.1397 15.4447 50.5792 15.4447H49.7182V13.6672H50.5792C51.1397 13.6672 51.5228 14.0008 51.5228 14.5602ZM49.7092 19.2852V16.7804H50.7291C52.075 16.7804 53.0014 15.8666 53.0014 14.5514C53.0014 13.254 52.075 12.3209 50.7291 12.3209H48.2313V19.2852H49.7092ZM57.7456 13.804V19.2852H56.1967V13.804H54.0615V12.3209H59.8916V13.804H57.7456ZM63.6016 19.2852H62.0115V12.3209H63.6016V19.2852ZM69.1714 17.8152C70.087 17.8152 71.0777 17.1927 71.0777 15.7977C71.0777 14.4026 70.087 13.772 69.1714 13.772C68.2454 13.772 67.2548 14.4026 67.2548 15.7977C67.2548 17.1927 68.2454 17.8152 69.1714 17.8152ZM69.1714 12.3209C71.0315 12.3209 72.612 13.6871 72.612 15.8076C72.612 17.919 71.0315 19.2852 69.1714 19.2852C67.3022 19.2852 65.7218 17.919 65.7218 15.8076C65.7218 13.6871 67.3022 12.3209 69.1714 12.3209ZM76.2179 14.7085L78.9816 19.2852H80.5621V12.3209H79.0666V16.5539L76.5491 12.3209H74.732V19.2852H76.2179V14.7085ZM15.0679 15.4447C15.6285 15.4447 16.0115 15.101 16.0115 14.5602C16.0115 14.0008 15.6285 13.6672 15.0679 13.6672H14.2074V15.4447H15.0679ZM14.1979 16.7804V19.2852H12.7204V12.3209H15.2179C16.564 12.3209 17.4905 13.254 17.4905 14.5514C17.4905 15.8666 16.564 16.7804 15.2179 16.7804H14.1979Z" fill="#1A1243"/>
</svg>
