<svg width="105" height="22" viewBox="0 0 105 22" fill="none" xmlns="http://www.w3.org/2000/svg">
<path d="M41.7884 3.16233C41.7821 3.53091 41.7758 3.89949 41.7758 4.26743C41.7758 4.60914 41.7789 4.95084 41.7819 5.29223C41.7891 6.08779 41.7962 6.88168 41.7645 7.67C41.7362 8.31865 41.9625 8.47797 42.5903 8.47797C43.4361 8.46308 44.2819 8.46658 45.1273 8.47008C46.221 8.47461 47.314 8.47913 48.4052 8.44383C49.3442 8.44383 49.593 8.59177 49.2706 9.58181C48.5642 11.7167 47.8913 13.8621 47.2184 16.0074C46.6844 17.7097 46.1501 19.4129 45.5996 21.1096C45.379 21.7924 45.4469 21.9972 46.2218 21.9972C47.7773 21.946 49.3385 21.9403 50.894 21.9972C51.5502 22.0143 51.7764 21.7411 51.9574 21.1722C53.6827 15.6416 55.4135 10.1167 57.1897 4.60883C57.4442 3.81793 57.2632 3.68706 56.4996 3.68706C55.3909 3.70414 54.2916 3.69925 53.1959 3.69437C51.7368 3.68787 50.284 3.6814 48.8238 3.72689C47.783 3.75534 47.4719 3.41395 47.6472 2.44666C47.6686 2.2042 47.6558 1.95791 47.643 1.71141C47.6287 1.43733 47.6145 1.16291 47.6472 0.893316C47.7377 0.136558 47.4153 0 46.7139 0C45.3846 0.0512092 44.0667 0.0568991 42.7544 0C42.0077 0 41.6966 0.136558 41.7758 0.955905C41.8135 1.68795 41.801 2.42523 41.7884 3.16233Z" fill="#1A1243"/>
<path d="M95.6064 3.69388C95.067 3.70597 94.5485 3.71759 94.0631 3.69852C93.6424 3.69852 93.2384 3.70061 92.8477 3.70264C91.6625 3.7088 90.6 3.71432 89.5662 3.65869C88.8874 3.64162 88.6895 3.85214 88.6895 4.52924V11.5734C88.6895 12.5644 88.6895 13.0566 88.9355 13.301C89.1783 13.5421 89.6605 13.5421 90.6183 13.5421C90.9396 13.5368 91.2848 13.5813 91.629 13.6258C92.3938 13.7245 93.1534 13.8226 93.6332 13.3714C94.1303 12.9039 94.0326 12.0704 93.9362 11.2487C93.8977 10.9203 93.8595 10.5937 93.8595 10.2931L93.8604 10.2277C93.8766 9.11655 93.8848 8.55436 94.1695 8.28899C94.4611 8.01729 95.0425 8.05666 96.2192 8.13633L96.2239 8.13665C97.9095 8.25044 98.5373 8.77392 98.6448 10.4809C98.724 11.8586 98.724 13.2397 98.6448 14.6175C98.5543 16.4894 97.7794 17.2007 95.8675 17.2007C93.7576 17.2291 91.6478 17.2291 89.5323 17.2007C88.9383 17.195 88.6499 17.3088 88.6838 17.9916C88.714 18.7235 88.7039 19.4605 88.6938 20.1975C88.6888 20.5661 88.6838 20.9352 88.6838 21.3031C88.6725 21.7867 88.8309 21.9745 89.3286 21.9745C90.3127 21.9648 91.2981 21.9717 92.2835 21.9786C94.1754 21.992 96.0671 22.0053 97.9491 21.9005C101.62 21.7014 103.77 19.6246 104.058 16.2106C104.248 13.9387 104.248 11.6547 104.058 9.38274C103.798 6.25898 102.067 4.42113 98.9672 3.85214C97.8279 3.64411 96.676 3.66992 95.6064 3.69388Z" fill="#1A1243"/>
<path d="M64.9947 3.6983C65.4949 3.72161 66.0314 3.70977 66.5907 3.69742C67.6693 3.6736 68.8326 3.64792 69.9837 3.86899C72.9986 4.43799 74.6503 6.22462 74.9783 9.26303C75.2187 11.494 75.2301 13.7439 75.0123 15.9771C74.6616 19.6301 72.7497 21.667 69.0221 21.8889C67.0836 22.021 65.1327 22.0055 63.1809 21.9899C62.1883 21.9821 61.1952 21.9742 60.2037 21.9857C59.638 21.9857 59.6041 21.6955 59.638 21.2631C59.638 20.8956 59.6424 20.5281 59.6468 20.1609V20.1585C59.6556 19.4234 59.6644 18.6889 59.638 17.9572C59.638 17.3313 59.8699 17.2061 60.4299 17.2175H66.652C68.8354 17.2175 69.5651 16.4949 69.616 14.2986C69.616 13.8832 69.6204 13.4684 69.6248 13.054C69.6336 12.2258 69.6424 11.3982 69.616 10.5717C69.5199 8.86474 68.8863 8.26161 67.1554 8.1535C65.9935 8.07672 65.4123 8.03831 65.1216 8.31034C64.8307 8.5826 64.8307 9.16581 64.8307 10.3327C64.8307 10.6075 64.8269 10.883 64.8231 11.1586C64.8156 11.7104 64.808 12.2634 64.8307 12.8135C64.8702 13.4224 64.6327 13.5874 64.0557 13.576C62.8452 13.5418 61.6348 13.5305 60.4243 13.576C59.7568 13.6044 59.621 13.337 59.6267 12.7282C59.6569 9.97048 59.6569 7.21087 59.6267 4.44937C59.6267 3.88037 59.7907 3.66416 60.3847 3.68123C61.4035 3.71004 62.446 3.7061 63.6064 3.70172C64.0502 3.70004 64.5112 3.6983 64.9947 3.6983Z" fill="#1A1243"/>
<path d="M4.3286 3.76223C6.67979 3.77487 9.03017 3.78751 11.383 3.74958C12.2315 3.74958 12.5596 3.94304 12.5143 4.83067C12.4521 5.79504 12.4521 6.76246 12.5143 7.72683C12.5143 8.32996 12.2994 8.5348 11.7281 8.47221C11.4851 8.45797 11.2414 8.45797 10.9984 8.47221C9.5051 8.47221 9.00733 8.95585 8.90551 10.4807C8.8066 11.9022 9.14305 13.2289 9.48048 14.5595C9.54827 14.8268 9.6161 15.0943 9.68045 15.3627C10.1047 17.1038 10.5855 18.8335 11.1115 20.5405C11.3717 21.3826 11.1681 21.6216 10.297 21.5931C8.78107 21.5306 7.25383 21.5533 5.73224 21.5931C5.16659 21.5931 4.87246 21.4566 4.7367 20.8421C4.58632 20.1944 4.42639 19.5477 4.26628 18.9002C3.84828 17.2097 3.42909 15.5145 3.17552 13.7866C2.88138 11.761 3.17552 9.91176 5.37588 8.51204H0.799805V3.74958C1.97652 3.74958 3.15272 3.75591 4.3286 3.76223Z" fill="#1A1243"/>
<path d="M32.793 21.6216H25.9487C25.3095 21.6216 25.1228 21.4168 25.1228 20.7852C25.1737 19.8888 25.1737 18.9903 25.1228 18.0939C25.0832 17.4168 25.2982 17.1949 25.9883 17.212C26.9751 17.2334 27.9619 17.2317 28.9487 17.2301C29.7946 17.2287 30.6405 17.2273 31.4863 17.2404C32.2273 17.2404 32.4253 17.0242 32.4083 16.3073C32.3687 14.0313 32.3631 11.7553 32.4083 9.47936C32.4083 8.72829 32.25 8.44949 31.4411 8.47793C30.4548 8.51236 29.4652 8.50892 28.4759 8.50547C27.6665 8.50266 26.8573 8.49984 26.0505 8.51777C25.2416 8.51777 25.038 8.26741 25.0832 7.51065C25.1454 6.51492 25.1172 5.51349 25.0832 4.51207C25.0832 3.98291 25.2529 3.78376 25.7959 3.78945H38.144C38.8448 3.78945 38.8356 4.16922 38.8253 4.59024C38.824 4.64153 38.8228 4.69344 38.8228 4.74535V16.1252C38.8228 16.9331 38.9585 17.377 39.8805 17.229C40.4462 17.1437 40.5819 17.4566 40.5706 17.963C40.5706 18.2742 40.5649 18.5854 40.5593 18.8964C40.548 19.5179 40.5367 20.1387 40.5706 20.7568C40.6159 21.4794 40.2991 21.6159 39.6599 21.6102C38.198 21.5885 36.7407 21.5991 35.2851 21.6096C34.4541 21.6156 33.6234 21.6216 32.793 21.6216Z" fill="#1A1243"/>
<path d="M22.4297 9.13801V13.4794C22.4297 14.0484 22.3109 14.35 21.6378 14.3329C20.0125 14.2912 18.3872 14.2912 16.7619 14.3329C16.0888 14.3329 15.97 14.0768 15.97 13.4794C15.9889 11.5031 15.9826 9.52682 15.9763 7.55052C15.9732 6.5627 15.97 5.5739 15.97 4.58608C15.97 4.01709 16.0831 3.77242 16.7054 3.7838C18.3627 3.81794 20.0257 3.81794 21.683 3.7838C22.3109 3.7838 22.4353 4.03416 22.424 4.58608C22.4132 5.54881 22.4185 6.51383 22.4237 7.4797C22.4267 8.03214 22.4297 8.58529 22.4297 9.13801Z" fill="#1A1243"/>
<path d="M84.7417 13.8322V9.17785C84.7417 8.65985 84.7392 8.14186 84.7366 7.62408C84.7316 6.58915 84.7266 5.55506 84.7417 4.5235C84.753 3.92037 84.6398 3.68139 83.9554 3.68139C82.8956 3.71175 81.8332 3.70162 80.7717 3.6915C80.2412 3.68645 79.711 3.68139 79.1814 3.68139C78.6157 3.67001 78.4008 3.82933 78.4008 4.43246C78.4234 7.53536 78.4234 10.6402 78.4008 13.7468C78.4008 14.3045 78.5309 14.5377 79.1531 14.5377C80.7765 14.5036 82.4056 14.5093 84.029 14.5377C84.5663 14.5491 84.7417 14.4012 84.7417 13.8322Z" fill="#1A1243"/>
</svg>
