<svg width="55" height="18" viewBox="0 0 55 18" fill="none" xmlns="http://www.w3.org/2000/svg">
<g clip-path="url(#clip0_206_147)">
<path fill-rule="evenodd" clip-rule="evenodd" d="M39.1441 11.5387V9.79175L34.6377 9.80134C33.3315 9.80134 32.3319 10.0664 31.6548 10.5614C31.3151 10.8224 31.0446 11.1626 30.867 11.5524C30.6893 11.9421 30.61 12.3695 30.636 12.7971C30.6098 13.2103 30.6875 13.6236 30.8622 13.999C31.0368 14.3745 31.3027 14.7002 31.6356 14.9464C32.2999 15.4223 33.3187 15.6682 34.6569 15.6682C36.4166 15.6682 37.6622 15.2914 38.4606 14.5121C38.8758 14.1161 39.1441 13.455 39.1441 11.5387ZM35.1104 0.00613553C37.4802 0.00613553 39.0579 0.459647 40.1022 1.44012H40.0767C41.0508 2.3695 41.4979 3.77155 41.4979 5.8379V12.7396C41.4979 14.0714 41.1657 15.0518 40.3992 15.9078C39.3061 17.0567 37.8281 17.7628 36.2474 17.8911C35.928 17.9294 35.5863 17.9294 35.235 17.9294C34.8006 17.9294 34.4238 17.9166 34.1044 17.8911C32.1179 17.7985 30.7414 17.2843 29.7417 16.2399C28.8698 15.3393 28.4994 14.2917 28.4994 12.7268C28.4994 11.0341 28.9465 9.86521 30.0068 8.96138C31.0671 8.05755 32.4692 7.63598 34.4238 7.63598H39.1217V6.03911C39.1217 4.78716 38.8343 3.91527 38.1636 3.29888C37.4929 2.68249 36.4678 2.38867 35.0274 2.38867C33.1367 2.38867 31.7666 3.02741 30.85 4.30491L30.7478 4.45501L30.6168 4.33046L29.0774 2.85814L28.9688 2.75914L29.0583 2.64416C29.7356 1.72025 30.649 0.995509 31.7027 0.545878C32.7928 0.146463 33.9502 -0.0368625 35.1104 0.00613553ZM51.3891 0.00646255H53.5193H53.6758V18H53.5193H43.7209H43.5804V17.8371V15.6813V15.5185H43.7273L51.2038 15.5664L51.191 0.182118V0.00646255H51.3891ZM15.0316 8.10259V6.39394C15.0316 4.4777 15.2998 3.81979 15.715 3.42376C16.5135 2.62852 17.7462 2.24208 19.5188 2.24208C20.8569 2.24208 21.8758 2.4848 22.5401 2.96386C22.8743 3.20959 23.1412 3.53569 23.3159 3.91196C23.4907 4.28823 23.5676 4.70252 23.5397 5.11644C23.5709 5.543 23.4956 5.97063 23.3205 6.36087C23.1455 6.7511 22.8762 7.09171 22.5369 7.35206C21.8598 7.85029 20.8601 8.10259 19.5539 8.10259H15.0316ZM19.7423 10.2456C21.6969 10.2456 23.1053 9.83679 24.1625 8.92977C25.2196 8.02275 25.6699 6.85703 25.6699 5.17393C25.6699 3.609 25.2994 2.55826 24.4275 1.66082C23.4279 0.64521 22.0386 0.131018 20.0649 0.0511749C19.7391 0.025625 19.3655 0.00646255 18.9343 0.00646255C18.5798 0.00646255 18.2413 0.00646255 17.9219 0.0447874C16.3392 0.168006 14.859 0.87619 13.77 2.03129C13.0003 2.88083 12.6682 3.87089 12.6682 5.20268V12.0852C12.6682 14.1547 13.1185 15.5536 14.0926 16.4862C15.1178 17.4443 16.6955 17.917 19.0589 17.917C20.219 17.9599 21.3765 17.7766 22.4666 17.3772C23.5203 16.9276 24.4337 16.2028 25.111 15.2789L25.2004 15.1639L25.0918 15.0649L23.5525 13.5926L23.4215 13.4681L23.3129 13.6182C22.3963 14.8957 21.0326 15.5344 19.1419 15.5344C17.7015 15.5344 16.6763 15.2374 16.0057 14.621C15.335 14.0046 15.0475 13.1327 15.0475 11.8808V10.252L19.7423 10.2456ZM10.4549 0.00594554H10.5379H10.5922V0.124114V2.28627V2.45235L10.4485 2.44277L2.96876 2.40125L2.98154 17.7855V17.9995H2.78672H0.656493H0.5V17.7855V0.124114V0.00594554H0.611781H0.656493H10.4549Z" fill="#1A1243"/>
</g>
<defs>
<clipPath id="clip0_206_147">
<rect width="54" height="18" fill="white" transform="translate(0.5)"/>
</clipPath>
</defs>
</svg>
