<svg width="133" height="18" viewBox="0 0 133 18" fill="none" xmlns="http://www.w3.org/2000/svg">
<path d="M16.2976 7.42881C16.2971 6.98981 16.2966 6.55096 16.2966 6.11211H16.3099V2.03687C16.3099 2.00284 16.3101 1.96869 16.3102 1.93445C16.3108 1.76347 16.3114 1.59044 16.2966 1.42048C16.2301 0.684367 15.7071 0.143365 14.9533 0.023636C14.3106 -0.078356 13.6278 0.303005 13.3352 0.914956C13.2155 1.16329 13.1889 1.42492 13.1889 1.69541V4.22748C13.1889 4.7064 13.1892 5.18532 13.1894 5.66424C13.1903 7.101 13.1911 8.53775 13.1844 9.9745C13.1801 11.1053 12.8298 12.1208 12.1204 13.0033C10.7861 14.675 8.52946 15.2603 6.54775 14.5952C4.76555 13.9965 3.65278 12.7638 3.25378 10.9191C3.17841 10.5598 3.16511 10.1829 3.16511 9.81483C3.15979 8.23403 3.15926 6.65162 3.15873 5.06952C3.15837 4.01544 3.15802 2.9615 3.15625 1.90827C3.15625 1.6422 3.13851 1.36727 3.06758 1.11451C2.87251 0.436039 2.21195 -0.0295772 1.53365 0.00146382C0.828743 0.0369393 0.230243 0.520293 0.075076 1.20763C0.0174427 1.44709 0.00414262 1.69985 0.00414262 1.94374L0.00413507 1.94817C-0.000295752 4.54527 -0.00471903 7.13795 0.00414262 9.73062C0.00857596 10.2672 0.0351759 10.8081 0.128276 11.3314C0.49181 13.358 1.47601 15.0386 3.12521 16.2803C5.16012 17.8102 7.43886 18.3468 9.93922 17.7703C11.881 17.3223 13.4371 16.2581 14.6474 14.6927C15.6981 13.3358 16.2878 11.8015 16.2966 10.0676C16.2996 9.18649 16.2986 8.30732 16.2976 7.42881Z" fill="#1A1243"/>
<path d="M132.995 7.31802L132.995 7.32824C132.999 8.22619 133.002 9.12382 132.987 10.0231C132.938 12.6571 131.754 14.7192 129.711 16.3067C128.217 17.4685 126.497 18.0538 124.599 17.9874C120.68 17.8499 117.457 15.1138 116.81 11.2514C116.73 10.7858 116.712 10.3069 116.712 9.83687C116.705 7.8606 116.706 5.88185 116.707 3.90436C116.707 3.24627 116.707 2.5879 116.707 1.93023C116.707 1.74399 116.712 1.55774 116.73 1.37593C116.792 0.710763 117.36 -0.0120492 118.303 0.0145574C119.261 0.041164 119.754 0.73737 119.833 1.43358C119.85 1.56569 119.847 1.70015 119.844 1.83525C119.843 1.88603 119.842 1.93701 119.842 1.98788C119.842 2.8526 119.843 3.71731 119.843 4.58203C119.844 6.31146 119.845 8.04088 119.842 9.77031C119.842 10.3069 119.887 10.839 120.041 11.3579C120.618 13.2824 122.32 14.6482 124.333 14.8255C125.681 14.9453 126.909 14.6438 127.982 13.8057C129.192 12.8656 129.831 11.6106 129.866 10.0807C129.888 9.19978 129.883 8.31882 129.878 7.43633C129.876 7.06196 129.874 6.68649 129.874 6.31146V1.86371C129.874 1.84676 129.874 1.82975 129.874 1.81269L129.874 1.77481C129.873 1.59854 129.872 1.41802 129.906 1.24733C130.061 0.502345 130.797 -0.0563936 131.533 0.00568854C132.318 0.0677706 132.916 0.653116 132.987 1.43358C133.002 1.58866 133.001 1.74068 133.001 1.89473L133 1.98788V6.12521C132.996 6.12964 132.996 6.12964 132.991 6.12964C132.991 6.5261 132.993 6.92214 132.995 7.31802Z" fill="#1A1243"/>
<path d="M97.8439 10.7625C97.8413 11.1527 97.8386 11.5431 97.8386 11.9339C97.8386 12.29 97.8383 12.6458 97.838 13.0014V13.0026C97.8372 14.0681 97.8364 15.1318 97.8431 16.1954C97.8431 16.4614 97.8609 16.7409 97.9457 16.9847C98.1849 17.6676 98.9249 18.0933 99.6122 17.9825C100.361 17.8628 100.907 17.2553 100.947 16.5014C100.953 16.3784 100.953 16.2553 100.952 16.1323C100.951 16.0912 100.951 16.0502 100.951 16.0091V9.27326C100.951 9.14556 100.95 9.01754 100.949 8.88928C100.947 8.54571 100.944 8.19949 100.96 7.85421C101.031 6.51945 101.523 5.36649 102.525 4.47075C103.979 3.17145 105.681 2.82114 107.525 3.38874C109.37 3.95191 110.5 5.23346 110.904 7.12697C110.984 7.48576 110.984 7.86465 110.983 8.23685L110.983 8.29323C110.986 9.59029 110.986 10.8874 110.986 12.1844C110.986 13.4815 110.986 14.7786 110.988 16.0756C110.988 16.3019 110.992 16.5324 111.041 16.7497C111.206 17.4991 111.857 18.0091 112.597 17.9913C113.316 17.9691 113.927 17.4637 114.082 16.7364C114.127 16.5368 114.136 16.3284 114.136 16.1244C114.136 15.3992 114.137 14.6743 114.138 13.9495L114.138 13.9334C114.141 11.9872 114.143 10.0411 114.127 8.09368C114.123 7.5039 114.056 6.90081 113.932 6.3199C112.97 1.76131 108.275 -0.872752 103.974 0.275766C100.539 1.19369 97.7458 4.47961 97.8341 8.22671C97.8555 9.07311 97.8497 9.91741 97.8439 10.7625Z" fill="#1A1243"/>
<path d="M74.7017 8.14707C74.7017 7.65484 74.6707 7.15376 74.5864 6.6704C74.2318 4.68821 73.2785 3.03416 71.687 1.79695C69.6742 0.231601 67.3999 -0.322704 64.8907 0.204994C63.1173 0.577486 61.6633 1.50429 60.453 2.83462C60.3999 2.89276 60.3476 2.95091 60.2939 3.01059C60.2084 3.10552 60.1191 3.20471 60.0184 3.31353C59.8633 3.13172 59.7303 2.98095 59.5973 2.83018C57.4515 0.338027 53.8738 -0.664156 50.7262 0.479929C49.2277 1.02536 47.8578 2.02311 46.8559 3.34458C46.4391 2.77253 45.9382 2.25814 45.3441 1.79695C43.3314 0.231601 41.0571 -0.322704 38.5478 0.204994C36.7745 0.577486 35.3203 1.50429 34.11 2.83462C34.0577 2.892 34.0061 2.94939 33.9531 3.00825C33.867 3.10389 33.777 3.20384 33.6756 3.31353C33.5205 3.13184 33.3876 2.98116 33.2547 2.83049C31.1089 0.338338 27.5309 -0.664156 24.3833 0.479929C21.3686 1.57523 18.8593 4.51083 18.8726 8.22689C18.8785 9.99727 18.8766 11.7677 18.8746 13.5381V13.5393C18.8736 14.4248 18.8726 15.3102 18.8726 16.1956L18.8725 16.2566C18.8719 16.3791 18.8713 16.5041 18.8904 16.6257C19.0056 17.4195 19.6928 18.0093 20.4775 17.9915C21.2445 17.9738 21.9228 17.3751 21.9893 16.6257C22.0114 16.3995 22.0159 16.1734 22.0159 15.9473C22.0159 13.4551 22.0159 10.9629 22.0203 8.47078C22.0203 8.18254 22.0247 7.89431 22.0469 7.60607C22.1622 6.16931 22.8183 5.01636 23.9577 4.15164C24.9463 3.39779 26.0768 3.07407 27.3137 3.15833C29.2599 3.28693 30.6964 4.21373 31.583 5.95646C31.9421 6.66597 32.0574 7.442 32.0574 8.23132V15.9561L32.0572 16.0585C32.0565 16.2295 32.0559 16.4026 32.0707 16.5725C32.084 16.7144 32.1106 16.8607 32.1593 16.9938C32.4165 17.6634 33.1524 18.0935 33.8396 17.9782C34.5622 17.8585 35.112 17.2776 35.1696 16.5548C35.1829 16.4017 35.1812 16.2461 35.1796 16.0917C35.179 16.0404 35.1785 15.9892 35.1785 15.9383C35.1785 15.2805 35.1782 14.6224 35.1779 13.9642V13.963C35.1771 11.9859 35.1762 10.0076 35.1829 8.03177C35.1873 6.74136 35.6174 5.60171 36.5306 4.68377C38.0025 3.22041 39.767 2.80357 41.7176 3.37118C43.5929 3.92105 44.7456 5.21591 45.1446 7.13602C45.2155 7.47721 45.22 7.83612 45.2244 8.19061L45.2244 8.22245C45.2288 9.53944 45.2288 10.8609 45.2288 12.1779V16.1911L45.2286 16.2515C45.2281 16.3743 45.2276 16.4995 45.2466 16.6213C45.2865 16.8917 45.3973 17.1357 45.548 17.3441L45.5525 17.3485C45.6012 17.415 45.6589 17.4771 45.7209 17.5392L45.752 17.5703C45.8052 17.619 45.8628 17.6634 45.9204 17.7033C45.9316 17.71 45.9416 17.7178 45.9516 17.7256C45.9616 17.7333 45.9715 17.741 45.9825 17.7477C46.0207 17.7712 46.0589 17.7908 46.0972 17.8104C46.1166 17.8203 46.136 17.8303 46.1554 17.8408C46.182 17.8541 46.2086 17.8673 46.2396 17.8807C46.2973 17.9028 46.3549 17.9205 46.417 17.9339C46.4298 17.9371 46.4421 17.9409 46.4542 17.9446C46.4755 17.9512 46.4963 17.9577 46.5189 17.9604C46.5721 17.9694 46.6253 17.9738 46.6785 17.9782C46.6924 17.9797 46.7058 17.9818 46.719 17.9839C46.7437 17.9877 46.7679 17.9915 46.7938 17.9915H46.8337C46.8527 17.9915 46.8684 17.9883 46.8864 17.9845L46.8958 17.9826C47.2593 17.9604 47.5918 17.8186 47.8489 17.5835C47.9021 17.5348 47.9509 17.4815 47.9952 17.4283C48.0041 17.4195 48.013 17.4106 48.0174 17.4018C48.1593 17.2288 48.2612 17.0204 48.31 16.7986C48.3277 16.7366 48.3455 16.6701 48.3543 16.6035C48.3765 16.4395 48.3765 16.2754 48.3765 16.1113C48.3765 15.4659 48.3768 14.8206 48.3771 14.1753V14.1721C48.3779 12.2247 48.3787 10.2776 48.3721 8.33332C48.3721 8.08942 48.3809 7.84552 48.3987 7.60607C48.5139 6.16931 49.1701 5.01636 50.3094 4.15164C51.2981 3.39779 52.4286 3.07407 53.6655 3.15833C55.6117 3.28693 57.0482 4.21373 57.9348 5.95646C58.2939 6.66597 58.4091 7.442 58.4091 8.23132V15.9561L58.4089 16.0575C58.4083 16.2288 58.4077 16.4022 58.4224 16.5725C58.4357 16.7144 58.4623 16.8607 58.5112 16.9938C58.7682 17.6634 59.5042 18.0935 60.1913 17.9782C60.914 17.8585 61.4638 17.2776 61.5213 16.5548C61.5347 16.4015 61.533 16.2458 61.5314 16.0913C61.5308 16.0401 61.5303 15.9891 61.5303 15.9383C61.5303 15.277 61.53 14.6154 61.5297 13.9536V13.9523C61.5289 11.9788 61.528 10.004 61.5346 8.03177C61.5391 6.74136 61.9692 5.60171 62.8824 4.68377C64.3366 3.22484 66.101 2.80357 68.0473 3.37561C69.9226 3.92549 71.0752 5.22034 71.4742 7.14045C71.5463 7.48105 71.5496 7.83976 71.5529 8.19368L71.554 8.30671C71.5585 10.8566 71.5585 13.4064 71.5585 15.9564V15.9694C71.5585 16.0156 71.5579 16.0618 71.5574 16.1079L71.5573 16.1096C71.5557 16.2488 71.554 16.3876 71.5673 16.5238C71.6426 17.3574 72.3121 17.9871 73.1189 17.996C73.9036 18.0048 74.5643 17.424 74.684 16.6124C74.7061 16.4484 74.7061 16.2844 74.7061 16.1204C74.7061 15.4544 74.7064 14.7886 74.7067 14.1231C74.7075 12.1298 74.7083 10.1384 74.7017 8.14707Z" fill="#1A1243"/>
<path fill-rule="evenodd" clip-rule="evenodd" d="M91.9254 15.8539C91.721 15.9957 91.588 16.0888 91.455 16.182C89.6823 17.4636 87.6959 18.04 85.5279 17.8582C81.436 17.5123 78.4789 14.6167 77.6233 11.1755C76.4396 6.41735 79.2548 1.6592 83.9984 0.404256C88.884 -0.890597 93.8535 2.22681 94.9086 7.12686C95.0639 7.85411 95.1398 8.58579 95.1398 9.33074C95.1347 10.5885 95.1354 11.8463 95.1361 13.104V13.1089C95.1367 14.0535 95.1372 14.998 95.1353 15.9425C95.1353 16.2086 95.1219 16.4835 95.055 16.7363C94.8648 17.4591 94.2302 17.907 93.4947 17.8804C92.7895 17.8538 92.2048 17.3748 92.0451 16.6698C92.0077 16.5157 91.9889 16.358 91.9673 16.1777C91.9554 16.0779 91.9426 15.9706 91.9254 15.8539ZM91.9781 9.00266C92.0227 5.86305 89.3806 3.23343 86.2107 3.24673C83.329 3.2556 80.5005 5.56594 80.4917 8.99821C80.4828 12.1156 82.9344 14.7363 86.2062 14.7541C89.7171 14.7674 92.0317 11.8629 91.9781 9.00266Z" fill="#1A1243"/>
</svg>
